<?xml version="1.0" encoding="utf-8"?>
<svg viewBox="-1144.5053 336.9199 1622.6842 27.6508" width="1622.6842" height="27.6508" xmlns="http://www.w3.org/2000/svg">
  <defs/>
  <path d="m 14611.9,9481.9 c -3.3,-3.5 -6.6,-7 -10.7,-11.3 -4.7,4.3 -9.5,8.7 -15.1,13.6 -27,0 -54.9,0 -82.8,0 -5.3,5.2 -10.3,10.2 -15.3,15.1 -14,0 -28,0 -41.9,0 -3.4,-3.5 -6.6,-7.1 -10,-10.5 -1.4,-1.3 -3.3,-2.1 -4.9,-3.1 -19.5,19 -20.8,19 -38.8,1.3 -2.1,-0.8 -4.1,-2.3 -6.1,-2.3 -35.1,-0.1 -70.1,-0.1 -105.2,0 -1.9,0 -3.9,1.8 -5.9,2.7 -3.3,3.5 -6.6,7 -11.3,12 -17.1,0 -35.6,0 -54.1,0 -16.3,0 -32.7,-0.7 -49,0.2 -18.2,1.1 -36.8,-4 -53.4,2.3 -4.6,4.7 -7.9,8.2 -11.5,12 -41.7,0 -83.6,0 -126,0 -4.7,-4.6 -9.8,-9.5 -15,-14.6 -69.9,0 -140,0 -209.6,0 -5.3,-5.2 -10.4,-10.1 -14.6,-14.1 -10.4,0 -19.5,0 -27.5,0 -6.1,5.5 -11.3,10.2 -14.6,13.2 -11.4,0 -20.5,0 -27.3,0 -7.4,-4 -8.8,-13.3 -17.1,-10.9 -3.3,3.5 -6.6,7 -10.6,11.2 -8.5,0 -17.7,0 -26.8,0 -5.5,5.2 -10.5,10 -16.1,15.3 -13.3,0 -27.3,0 -41.5,0 -4.8,-4.7 -9.9,-9.7 -14.7,-14.4 -28.2,0 -56.2,0 -83.6,0 -5.5,5.3 -10.6,10.1 -14.6,14 -52.6,0 -103.9,0 -153.7,0 -6.3,-5.6 -11.4,-10.2 -15.9,-14.2 -40.9,0 -80.7,0 -120.4,-0.1 -2,0 -4.1,-1.3 -6.2,-2 -3.3,-3.5 -6.1,-7.8 -10,-10.4 -10.7,-7.1 -21.7,-0.6 -22.8,13.8 -0.4,5.2 -1.3,9.3 -7,12.9 -12.8,0 -26.6,0 -40.5,0 -5.4,5.1 -10.5,10 -16,15.2 -18,0 -36.7,0 -55.5,0 -4.9,-4.7 -10,-9.6 -14.8,-14.3 -4.8,0 -9.5,0 -13.3,0 -5.4,4.9 -10.2,9.4 -15,13.8 -3.9,-4.2 -7.2,-7.6 -10.7,-11.3 -13.2,-5.4 -27.1,-1.8 -40.7,-2.7 -16.1,-1.1 -32.3,2.1 -48.1,-2.3 -3.4,-3.6 -6.7,-7 -10,-10.5 -15.4,-5.3 -31.9,1.8 -47.1,-5.3 -3.3,-3.5 -6.6,-6.9 -10.4,-11 -8.7,0 -17.9,0 -28.3,0 -4.1,4 -9.2,8.9 -14.6,14.1 -8.8,0 -18.1,0 -27.3,0 -5.2,5.1 -10.2,10 -15.5,15.2 -18.4,0 -37.1,0 -54.9,0 -5.7,5.4 -10.8,10.2 -14.6,13.8 -15.5,0 -29.3,0 -42.4,0 -4,-4.3 -7.3,-7.8 -10.7,-11.4 -13.3,-5.2 -27.2,-2 -40.9,-2.6 -11.6,-0.5 -23.3,0.3 -35,-0.2 -13.7,-0.5 -27.6,2.2 -41,-2.2 -3.4,-3.6 -6.7,-7.1 -11,-11.5 -8.1,0 -17.2,0 -26.4,0 -5.5,-5.1 -10.7,-9.8 -16.7,-15.3 -138.9,0 -279,0 -420.1,0 -4.3,4.1 -9.3,9.1 -14.6,14.2 -60.4,0 -121.1,0 -181.7,0 -5.1,5.1 -10.2,10.1 -15,14.9 -4.9,0.3 -9.5,0.5 -13.6,0.7 -5.4,5.1 -10.5,9.8 -16,14.9 -13.8,0 -27.6,0 -40.7,0 -4,4.3 -7.3,7.8 -11.8,12.6 -5.4,0.4 -12.2,1.6 -18.8,1.3 -18.4,-0.9 -36.9,2.7 -54.5,-1.8 -3.9,-4.1 -7.2,-7.5 -11.4,-12 -12.8,0 -26.6,0 -40.5,0 -5.5,-5 -10.6,-9.7 -16.6,-15.2 -8.2,0 -17.4,0 -26.6,0 -5.3,-5.2 -10.3,-10.1 -15.6,-15.3 -4.3,0 -9,0 -13.5,0 -5.1,5.1 -10.1,10.1 -15.4,15.2 -9.2,0 -18.5,0 -26.7,0 -5.9,5.5 -11,10.2 -14.6,13.6 -15.8,0 -29.5,0 -42.5,0 -4.1,-4.4 -7.4,-7.9 -11.1,-11.7 -10.7,-4.8 -22.3,-1.3 -33.7,-2.2 -13.6,-1.2 -27.6,2.2 -40.9,-2.6 -3.4,-3.6 -6.7,-7.1 -11.6,-12.3 -16.9,0 -35.3,0 -53.8,0 -16.4,0 -32.8,0.7 -49.1,-0.2 -18.2,-1 -36.8,3.8 -53.6,-2.2 -4.4,-4.6 -7.7,-8.1 -11.4,-12 -55.6,0 -111.5,0 -167.5,0 -5.2,-5.1 -10.3,-10.1 -15.2,-14.9 -4.7,4.6 -9.6,9.3 -14.2,13.7 -5.6,-5.1 -10.7,-9.8 -14.2,-13.1 -11.2,0 -20.3,0 -27.5,0 -6.8,5.8 -12,10.3 -16.3,14 -15.1,-0.6 -30,3.2 -38.4,-13.3 -20.1,-5.5 -41.2,3.2 -60.1,-4.3 -4.3,-4.4 -7.6,-7.9 -11.2,-11.8 -8.9,0 -18.2,0 -28.1,0 -4.5,4.5 -9.6,9.5 -14.7,14.6 -9.2,0 -18.5,0 -27.4,0 -5.3,5.2 -10.4,10.1 -15.7,15.2 -23.3,0 -46.5,0 -68.5,0 -6.1,5.6 -11.2,10.2 -15.7,14.3 -40.9,0 -80.6,0 -120.3,0.1 -2.1,0 -4.2,1.2 -6.3,1.9 -3.3,3.5 -6.6,7 -10.4,11 -17.7,4.3 -36.2,0.7 -54.6,1.7 -1.9,0.1 -3.9,-1.8 -5.9,-2.7 -3.3,-3.5 -6.6,-7 -11.3,-12 -31.1,0 -63.7,0 -96.2,0.2 -1.8,0 -3.7,2.3 -5.5,3.6 -3.3,3.5 -6.6,6.9 -10.2,10.7 -37,0 -74.4,0 -112,0 -4.7,-4.6 -9.8,-9.5 -14.7,-14.3 -9.5,0 -18.8,0 -27.6,0 -5.4,5.2 -10.5,10.1 -15.2,14.6 -5.2,0.4 -9.7,0.8 -13.5,1.1 -5.6,5.1 -10.7,9.7 -15.1,13.7 -15,0.8 -28.9,-1.8 -42.5,2.1 -3.3,3.5 -6.6,7 -12.1,12.7 -41.92,0 -86.04,0.1 -130.15,-0.1 -4.28,0 -8.57,-1.8 -12.82,-2.8 -3.33,-3.5 -6.64,-7 -10.58,-11.2 -17.86,0 -36.38,0 -54.93,0 -5.4,-5.1 -10.48,-10 -16.03,-15.2 -60.05,0 -120.74,0 -181.18,0 -5.27,-5.1 -10.29,-9.9 -15.12,-14.5 -5.1,4.9 -10.19,9.7 -14.8,14.1 -5.28,0.6 -9.78,1 -13.53,1.3 -5.64,5.1 -10.8,9.7 -15.22,13.6 -31.65,0 -62.02,0.1 -92.4,-0.1 -2.05,0 -4.1,-1.3 -6.14,-2.1 -3.31,-3.5 -6.61,-6.9 -9.92,-10.4 -15.31,-5.4 -31.86,1.6 -47.01,-5.3 -3.3,-3.5 -6.62,-7 -10.5,-11.1 -31.97,0 -64.51,0 -98.38,0 -4.06,3.9 -9.14,8.8 -14.61,14 -8.74,0 -18.04,0 -27.16,0 -5.25,5.2 -10.33,10.1 -15.68,15.3 -9,0 -18.28,0 -26.86,0 -5.6,5.3 -10.69,10.1 -14.61,13.8 -24.7,0 -47.9,0 -70.39,0 -3.97,-4.2 -7.27,-7.7 -12,-12.7 -28.09,-3.8 -58.11,0.8 -86.4,-2.4 -4.57,-4.8 -7.88,-8.3 -11.48,-12.1 -10.7,-1.3 -21.75,-2.7 -31.76,-3.9 -4.24,-4.5 -7.54,-8 -11.38,-12 -8.67,0 -17.87,0 -28.24,0 -4.16,4 -9.23,8.9 -14.6,14.1 -8.85,0 -18.17,0 -27.35,0 -5.17,5.1 -10.21,10.1 -15.46,15.3 -32.53,0 -65.16,0 -96.97,0 -5.72,5.3 -10.81,10.1 -14.62,13.7 -43.54,0 -85.39,0 -126.52,0 -4.03,-4.3 -7.33,-7.8 -12.87,-13.6 -22.64,-1.8 -47.95,1.1 -71.59,-1.6 -4.54,-4.8 -7.85,-8.3 -11.15,-11.8 -15.32,-5.2 -31.91,2.2 -47.02,-5.2 -3.3,-3.5 -6.6,-7 -10.39,-11 -18.08,0 -36.64,0 -56.25,0 -4.25,4.2 -9.31,9.1 -14.59,14.3 -4.29,0 -8.95,0 -13.5,0 -5.07,-5 -10.12,-10 -15.35,-15.2 -41.94,0 -83.9,0 -124.96,0 -5.8,-5.4 -10.91,-10.1 -15.63,-14.5 -5.25,0.7 -9.7,1.2 -13.25,1.6 -5.79,5.1 -10.97,9.6 -15.26,13.3 -83.3,0 -165.09,0 -246.87,-0.1 -2.01,0 -4.01,-1.6 -6.01,-2.4 -3.31,-3.5 -6.61,-7 -10.77,-11.4 -8.26,0 -17.37,0 -30.09,0 -7.34,-9.9 -15.88,-21.5 -22.54,-30.5 -22.99,0 -41.68,0 -60.12,0 -5.18,5.1 -10.22,10.1 -15,14.8 -5.04,0.3 -9.6,0.6 -13.58,0.8 -5.47,5.1 -10.59,9.8 -16.12,14.9 -32.51,0 -65.01,0 -95.64,0 -6.71,5.8 -11.9,10.3 -16.28,14 -15.13,-1.1 -29.04,2.3 -42.48,-2.7 -3.3,-3.5 -6.6,-7 -11.48,-12.2 -30.9,0 -63.41,-0.1 -95.91,0.2 -1.89,0 -3.75,2.2 -5.62,3.4 -3.31,3.5 -6.61,6.9 -10.28,10.8 -88.32,0 -177.01,0 -265.7,0 -5.23,5.2 -10.28,10.1 -15.46,15.3 -32.47,0 -65.17,0 -97.46,0 -5.14,4.9 -10.02,9.5 -14.58,13.9 -5.6,-5.1 -10.73,-9.8 -15.19,-13.9 -14.89,-0.7 -28.79,1.5 -42.44,-2 -6.58,-19.2 -32.25,-6.9 -38.84,-26.2 -29.49,-4.9 -59.67,2.5 -87.8,-3.8 -4.55,-4.8 -7.86,-8.3 -11.49,-12.2 -8.93,0 -18.19,0 -27.32,0 -5.27,-5.1 -10.32,-10.1 -15.29,-15 -18.72,0 -37.39,0 -55.62,0 -5.35,5.2 -10.42,10.1 -15.74,15.3 -9.2,0 -18.41,0 -26.4,0 -6.1,5.5 -11.24,10.1 -15.72,14.2 -40.87,0 -80.59,0 -120.31,0.1 -2.08,0 -4.15,1.2 -6.23,1.9 -3.3,3.5 -6.6,7 -11.19,11.8 -28.28,3.1 -58.29,-1.3 -86.37,2.4 -4.74,5 -8.04,8.5 -12.03,12.7 -36.51,0 -73.7,0 -112.45,0 -3.9,-3.7 -9,-8.5 -14.62,-13.8 -8.55,0 -17.82,0 -26.81,0 -5.36,-5.2 -10.44,-10.2 -15.34,-14.9 -4.8,0 -9.42,0 -13.53,0 -5.45,5.2 -10.51,10.1 -15.88,15.2 -37.23,0 -74.47,0 -110.38,0 -6.2,5.6 -11.34,10.2 -14.74,13.3 -20.65,2.7 -39.23,-1.6 -57.4,2.9 -18.53,18.1 -19.64,18.1 -38.92,-0.7 -4.49,-0.4 -8.99,-0.8 -14.13,-1.3 -4.77,4.5 -9.85,9.3 -14.95,14.2 -4.83,-4.6 -9.85,-9.4 -14.62,-13.9 -4.86,0 -9.46,0 -13.44,0 -5.55,5.2 -10.63,10.1 -14.61,13.9 -24.63,0 -47.82,0 -69.59,0 -6.31,-5.7 -11.46,-10.3 -15.96,-14.3 -14.93,0.9 -28.82,-1.8 -42.39,2.4 -18.23,17.8 -19.41,17.8 -39.41,-1.7 -8.58,0 -17.77,0 -26.97,0 -5.35,-5.1 -10.41,-10 -15.83,-15.2 -4.14,0 -8.76,0 -13.25,0 -5.22,-5.1 -10.3,-10.1 -15.08,-14.7 -9.57,0 -18.83,0 -27.35,0 -5.65,5.3 -10.75,10.1 -16.19,15.3 -37.22,0 -74.41,0 -110.05,0 -6.43,5.6 -11.6,10.2 -17.72,15.6 -13.21,-4.9 -27.32,2 -40.73,-3.9 -3.34,-3.5 -6.64,-7 -10.19,-10.8 -10.76,-1.3 -21.81,-2.7 -31.81,-4 -4.24,-4.4 -7.55,-7.9 -11.29,-11.9 -4.85,4.6 -9.72,9.2 -14.91,14.1 -13.51,0 -27.52,0 -41.49,0 -5.01,-4.9 -10.06,-9.9 -14.58,-14.3 -37.96,0 -75.26,0 -111.59,0 -7.89,6 -12.02,15.5 -23.48,14.7 -11.57,-0.7 -15.27,17.4 -29.3,15 -6.89,-1.2 -10.94,7.7 -15.84,12.5 -5.1,5.1 -9.94,10.5 -15.34,16.2 -27.47,0 -55.39,0 -84.28,0 -4.3,-4.3 -9.35,-9.2 -14.58,-14.3 -13.71,0 -27.72,0 -41.48,0 -5.2,-5.2 -10.24,-10.1 -15.02,-14.8 -5.02,-0.4 -9.58,-0.6 -13.59,-0.9 -5.45,-5 -10.57,-9.8 -14.2,-13.1 -11.03,0 -20.15,0 -26.67,0 -7.57,5.7 -12.97,13.1 -18.52,13.2 -10.91,0.3 -16.51,7 -23.6,14.7 -4.8,-4.3 -9.58,-8.6 -15.16,-13.6 -45.61,0 -92.25,0 -139.69,0 -4.41,4.4 -9.46,9.4 -14.57,14.4 -4.5,0 -9.17,0 -13.5,0 -5.25,-5.1 -10.3,-10.1 -14.63,-14.3 -14.59,-6.3 -19.22,10 -28.76,12.3 -5.58,-4.7 -10.78,-9.2 -14.42,-12.3 -11.26,-0.6 -20.27,-1.1 -27.49,-1.4 -5.01,-5.3 -8.31,-8.8 -11.65,-12.4 -12.58,1 -21.66,-5.4 -29.03,-15.9 -9.92,9.9 -19.8,19.7 -28.76,28.7 -15.12,0 -28.99,0 -41.65,0 -6.1,-5.6 -11.25,-10.2 -17,-15.4 -13.56,3.5 -27.56,-1.6 -41.12,3.1 -3.34,3.5 -6.64,7 -9.94,10.5 -15.86,3.1 -32.02,7.4 -43.4,-11.9 -4.93,4.6 -9.76,9 -14.67,13.5 -4.74,-4.5 -9.73,-9.3 -14.91,-14.3 -13.78,0 -27.76,0 -41.19,0 -5.46,-5.2 -10.53,-10.1 -15.03,-14.4 -11.68,-2.6 -24.26,5.1 -33.38,-6.6 -0.3,-4.9 -1,-9.7 -0.67,-14.5 0.14,-1.9 2.52,-3.7 3.99,-5.8 13.18,-5.6 27.11,-2.1 40.75,-2.8 11.66,-0.5 23.37,0.2 35.04,-0.2 13.75,-0.4 27.63,2 41.14,-2 3.39,-3.5 6.69,-7 10.47,-11 10.53,-1.3 21.57,-2.6 31.64,-3.8 4.19,-4.4 7.49,-7.9 11.41,-12.1 13.24,0 27.08,0 42.31,0 4.01,3.9 9.1,8.7 14.61,14 32.06,0 64.72,0 97.59,0 4.8,-4.6 9.81,-9.4 14.62,-13.9 5.1,4.8 10.19,9.6 14.16,13.4 19.97,0 38.48,0 56.34,0 3.96,-4.2 7.26,-7.7 11.34,-12 17.29,-5.2 35.84,-1.1 54.15,-2 16.32,-0.7 32.72,0.3 49.05,-0.2 18.4,-0.7 36.95,2.4 54.72,-1.7 3.79,-4 7.09,-7.5 12.37,-13 23.43,0 48.88,-0.2 74.32,0.1 4.28,0.1 8.53,2 12.76,3 8.29,8.7 16.55,17.5 24.96,26.3 18.51,0 37.16,0 55.66,0 5.23,5.1 10.3,10.1 15.08,14.7 9.57,0 18.84,0 27.79,0 10.59,-9.9 18.45,-22.4 24.05,-25.5 20.53,-6.9 34.61,-0.4 48.03,-6.2 8.3,-8.7 16.56,-17.4 25.32,-26.7 46.1,0 92.69,0 140.38,0 4.22,4.1 9.28,9 14.6,14.2 4.25,0 8.9,0 13.35,0 5.19,5.1 10.24,10.1 14.75,14.5 75.35,0 150.04,0 223.86,0 5.75,-5.3 10.86,-10.1 16.33,-15.2 9.16,0 18.3,0 26.67,0 2.42,-2.6 3.96,-4.5 5.74,-6 12.87,-11.5 16.03,-11.4 28.93,-0.4 3.36,2.9 7.43,4.8 11.14,7.2 7.06,0 14.07,0 22.1,0 4.55,4.1 9.67,8.8 15.63,14.3 8.16,0 17.38,0 26.61,0 5.27,5.2 10.32,10.1 15.55,15.3 27.72,0 55.76,0 83.54,0 5.19,5.1 10.24,10 15.08,14.8 4.95,-0.3 9.52,-0.6 13.54,-0.8 5.44,-5 10.56,-9.8 15.26,-14.1 5.28,0.7 9.73,1.2 13.24,1.7 5.82,5 11.02,9.5 15.28,13.2 55.3,0 109.04,0 162.79,-0.1 1.99,0 3.98,-1.7 5.97,-2.5 3.32,-3.5 6.62,-7 11.56,-12.2 12.16,0 25.95,0 39.74,0 11.69,0 23.4,0.5 35.05,-0.1 13.58,-0.8 27.55,3.2 40.48,-3.2 3.52,-3.7 6.83,-7.2 10.53,-11.1 27.52,0 55.46,0 84.23,0 4.4,4.3 9.44,9.3 14.58,14.4 23.16,0 46.52,0 69.58,0 5.22,-5.2 10.27,-10.1 15.54,-15.3 13.91,0 27.8,0 41.42,0 7.24,-11.2 16.94,-16.3 29.12,-16.1 3.35,-3.6 6.65,-7 9.96,-10.5 2,-0.9 4.02,-2.4 6.03,-2.4 46.73,-0.2 93.46,-0.1 140.19,-0.2 4.33,-0.1 8.65,-1.7 12.96,-2.6 8.26,-8.8 16.52,-17.5 24.78,-26.2 4.58,-0.3 9.16,-0.5 14.06,-0.8 4.86,-4.8 9.9,-9.7 14.91,-14.7 9.32,0 18.63,0 27.55,0 5.32,5.2 10.39,10.1 15.09,14.7 5.14,0.4 12.74,-0.8 13.73,1.4 8.1,17.7 31.55,8.6 39.29,25.9 11.03,1.5 22.06,3 32.12,4.3 22.35,23.6 43.8,46.3 65.38,68.9 1.46,1.5 3.79,2.2 5.72,3.2 13.74,-0.7 27.64,1.8 41.23,-2.1 8.26,-8.7 16.52,-17.5 24.78,-26.2 4.51,-0.4 9,-0.9 14.31,-1.4 4.6,-4.4 9.68,-9.2 15.22,-14.5 32.02,0 64.68,0 97.12,0 5.29,-5.2 10.37,-10.1 15.66,-15.3 4.39,0 9,0 12.99,0 5.53,-5.2 10.62,-10.1 14.61,-13.9 19.94,0 38.45,0 55.55,0 6.31,5.7 11.47,10.3 15.88,14.2 41.02,0 80.73,0 120.46,-0.1 2.05,0 4.09,-1.4 6.13,-2.2 1.65,-1.7 3.36,-3.4 4.95,-5.2 9.29,-10.6 26.77,-6.2 34.07,-20.8 0.63,-1.3 4.24,-1.6 6.31,-1.2 11.49,1.8 15.41,-9 22.44,-14.6 4.97,4.8 10,9.6 15.33,14.8 22.99,0 46.28,0 68.84,0 5.63,5.3 10.73,10.1 14.61,13.7 48.12,0 94.66,0 140.54,0 7.12,-7.3 12.44,-14.5 23.45,-14.7 5.57,-0.1 11.03,-7.4 17.05,-11.8 11.72,5.3 18.62,18.1 28.81,27.2 37.26,0 74.62,0 111.8,0 5.18,5.1 10.23,10 15.11,14.9 4.87,0.2 9.46,0.4 13.54,0.6 5.4,5.1 10.51,9.9 14.28,13.4 29.56,0 57.4,0 83.55,0 6.54,-5.7 11.72,-10.3 16.22,-14.2 19.63,1.5 38.19,-2.3 55.75,2 3.95,4.2 7.25,7.6 11.43,12.1 4.69,-4.2 9.46,-8.4 15.13,-13.4 8.08,0 17.3,0 26.53,0 5.27,-5.2 10.32,-10.2 15.56,-15.3 9.02,0 18.37,0 27.52,0 5.12,5.1 10.17,10 15.41,15.2 79.33,0 158.68,0 237.07,0 5.84,5.4 10.95,10.1 16.47,15.2 9.14,0 18.26,0 25.62,0 6.65,5.8 11.84,10.3 15.89,13.8 20.09,1.6 38.66,-2.4 56.13,2.1 4,4.2 7.3,7.7 11.32,11.9 6.05,0.3 12.85,0.9 19.64,0.9 46.73,0.1 93.46,0 140.2,0.2 5.13,0.1 9.35,-0.1 12.65,-3.6 3.31,-3.5 6.61,-7 10.32,-10.9 13.5,0 27.41,0 41.32,0 5.24,-5.2 10.29,-10.1 15.48,-15.2 9.09,0 18.42,0 27.48,0 5.21,-5.2 10.26,-10.1 14.58,-14.4 24.2,0 47.44,0 69.95,0 7.48,6.6 11.99,15.8 23.35,14.6 7.71,-0.8 11.05,7.6 16.78,12.5 24.1,6.5 49.79,-2.5 73.94,4.3 3.83,4 7.13,7.5 11.97,12.6 14.61,0 30.76,-0.3 46.9,0.2 5.16,0.1 9.34,-0.2 12.6,-3.8 3.31,-3.5 6.62,-7 10.26,-10.8 8.9,0 18.16,0 27.36,0 5.25,-5.2 10.28,-10.2 15.48,-15.3 9.12,0 18.45,0 27.37,0 5.32,-5.2 10.37,-10.1 15.68,-15.3 23.24,0 46.47,0 68.54,0 6.05,-5.5 11.18,-10.1 14.62,-13.3 11.26,0 20.35,0 29.11,0 6.92,20.2 32.57,7.9 39.13,27.2 15.32,5.4 32.06,-3.7 47.02,5.2 3.31,3.5 6.62,7 10.2,10.8 13.66,0 27.6,0 41.86,0 4.76,-4.6 9.83,-9.6 15.05,-14.7 4.49,0 9.13,0 13.26,0 5.41,-5.2 10.48,-10.1 14.61,-14 85.19,0 169.17,0 251.87,0 6.15,5.5 11.3,10.2 15.69,14.1 14.99,0.8 28.89,-1.7 42.49,2.1 3.31,3.5 6.62,7 12.07,12.8 16.19,0 34.61,0 53.04,0 16.36,0 32.74,0.6 49.06,-0.2 18.31,-0.8 36.89,3.2 54.19,-2 9,-9.5 17.3,-18.2 25.8,-27.2 27.7,0 55.7,0 83.9,0 4.8,4.7 9.9,9.6 14.8,14.4 18.8,0 37.5,0 55.5,0 5.5,-5.3 10.6,-10.1 16,-15.3 23.2,0 46.4,0 68.2,0 6.3,-5.6 11.4,-10.2 14.6,-13 11.6,0 20.6,0 28.7,0 4.3,4.5 7.6,8 11.8,12.5 5.8,0.3 12.5,1.1 19.3,1.1 30.4,0.1 60.7,0.1 91.1,-0.1 2,0 3.9,-1.9 5.8,-2.9 3.3,-3.5 6.6,-7 10.5,-11.1 18,0 36.5,0 55,0 5.4,-5.1 10.5,-10 16,-15.3 18,0 36.7,0 55.1,0 5.3,-5.1 10.4,-10 15.7,-15.2 23,0 46.3,0 69,0 5.5,-5.3 10.6,-10.1 14.6,-13.9 24.6,0 47.8,0 70.4,0 8.9,9.5 17.1,18.2 25.5,27 15.9,3.9 32.1,1.4 48.2,1.8 4.2,0.1 8.5,-2 12.7,-3 3.3,-3.5 6.6,-7 10.5,-11.1 22.7,0 45.9,0 70.3,0 4.1,4 9.2,8.9 14.6,14.1 22.8,0 46.2,0 69.6,0 4.8,-4.7 9.8,-9.4 14.5,-14 5.3,5 10.4,9.8 15.8,14.9 37.3,0 74.4,0 110,0 6.5,5.7 11.7,10.3 16.1,14.2 15,-1 28.9,2 42.5,-2.5 3.3,-3.5 6.6,-7 9.9,-10.5 1.6,0.4 3.7,0.4 4.8,1.5 3.6,3.2 6.7,6.9 10.5,10.9 22.8,0 46,0 69.2,0 5.3,5.1 10.4,10.1 15.7,15.2 13.6,0 27.6,0 41.4,0 5.2,5.1 10.2,10.1 14.7,14.5 14.7,0 28.6,0 41.6,0 5.8,-5.4 10.9,-10.1 16.4,-15.3 9.2,0 18.3,0 26.6,0 2.5,-2.5 4,-4.4 5.8,-6 10,-8.9 17,-11.2 23.7,-5.1 7.1,6.3 12.8,12.3 23.4,12.7 5.5,0.2 10.6,8.2 17,13.6 7.8,0 17.1,0 26.3,0 5.2,5.2 10.3,10.2 15.5,15.3 37.1,0 74.4,0 111.6,0 5.2,-5.1 10.2,-10.1 15,-14.8 5,-0.3 9.6,-0.6 14.1,-0.8 10.3,-9.6 18,-22.3 30,-28.4 9.8,-0.5 18.9,-1 26.2,-1.4 4.9,-5.1 8.2,-8.6 13.1,-13.8 14.5,0 30.7,0.2 46.8,-0.2 5.2,-0.1 9.4,0.2 12.7,3.7 3.3,3.5 6.6,7 10.3,10.9 13.5,0 27.4,0 42.1,0 4.4,-4.4 9.5,-9.4 14.7,-14.5 23.1,0 46.4,0 69.5,0 5.2,-5.1 10.3,-10.1 14.6,-14.3 56.9,0 112.9,0 167.8,0 5.9,5.5 11,10.2 14.6,13.4 48.5,0 95,0 140.6,0 4.2,-4.4 7.5,-7.8 13.5,-14.2 22.3,2 47.4,-1.8 70.7,1.7 6.8,5.8 10.1,14.1 17.9,13.3 11.4,-1.3 15.8,8.3 23,14.6 8.8,0 18.1,0 27.3,0 5.2,5.2 10.3,10.1 15.4,15.3 37.2,0 74.6,0 111.5,0 5.1,4.9 10,9.5 14.6,13.8 5.6,-5.2 10.7,-9.8 15.2,-13.9 14.9,-0.7 28.8,1.7 42.4,-2 8.3,-8.7 16.6,-17.4 24.9,-26.2 12.7,1.2 21.5,-5.6 29,-16 9.1,0 18.4,0 27.9,0 4.8,4.7 9.9,9.6 15.1,14.7 13.8,0 27.8,0 41.3,0 5.4,5.2 10.5,10.1 15.8,15.3 13.9,0 27.8,0 40.3,0 6.2,5.5 11.4,10.2 15.8,14.2 36.3,0 71.3,-0.1 106.4,0.1 2,0 4.1,1.3 6.2,2 3.3,3.4 6.6,6.9 9.9,10.4 1.6,-0.2 3.9,0.2 4.8,-0.8 13.1,-14 26,-28.3 38.1,-41.6 6.5,0 11.1,0 15.1,0 5.5,-5.2 10.6,-10.1 14.6,-13.9 19.9,0 38.4,0 58,0 5.6,13.3 16.4,15.3 28.7,14.3 4.3,-0.3 8.8,1.3 13.2,2.1 3.3,3.5 6.6,7 9.9,10.5 2,0.7 4.1,2 6.2,2 67.7,0.1 135.5,0.1 205.2,0.1 13.9,-14.2 28.8,-29.3 43.3,-44.2 19,0 37.7,0 55.2,0 6,5.3 10.7,11.8 16.7,14 6.1,2.3 13.9,-0.1 18.2,7.3 5.6,9.8 16.4,6.1 23.9,10.6 3.9,2.4 6.7,6.8 10,10.3 13.6,3.7 27.5,1.3 41.3,2 3.5,2.8 7.9,5 10.5,8.6 5.1,7 11.9,6.1 19.3,6.2 4.7,4.6 9.8,9.5 15.1,14.7 13.6,0 27.6,0 45.9,0 6.6,-8.9 15.2,-20.5 21.3,-28.7 32.7,0 60.5,0 87.6,0 4,4.2 7.3,7.7 10.6,11.2 2,0.9 4,2.7 6,2.7 44.4,0.1 88.7,0.1 133.2,0 2,0 4,-1.6 7.2,-2.9 4.5,-7.9 11.4,-13.6 23.5,-11.4 4.1,3.7 9.2,8.4 14.7,13.5 3.9,0.2 8.5,0.6 13.6,0.9 4.7,4.7 9.8,9.6 15,14.7 4.4,0 9,0 13.5,0 5.1,-5 10.2,-10 15.4,-15.1 74.7,0 149.3,0 223.1,0 5.8,-5.4 10.9,-10.2 16.4,-15.3 74.6,0 149.2,0 222,0 6.6,-5.7 11.8,-10.2 16.2,-14.1 19.7,1.5 38.3,-2.4 55.8,2 4,4.2 7.3,7.7 11.4,12.1 8.3,0 17.4,0 25.5,0 22,19 22.6,20.8 25.6,35.9 8.1,10.4 14,17.9 18.7,24 6.9,0.5 11.5,0.8 16,1.1 6.6,7 13.3,14 19.9,21 -13.3,9.5 -23.3,10 -107.4,5" style="fil:#36454F;fill-opacity:1;fill-rule:nonzero;stroke:none" id="path286" transform="matrix(0.13333330353101047, 0, 0, -0.13333330353101047, -1484.3948974609375, 1611.423583984375)"/>
  <path d="m 4339.63,9514.1 c -14.01,0.4 -28.03,0.2 -42.03,0 -1.95,0 -3.87,-1.9 -5.8,-3 -3.3,-3.4 -6.6,-6.9 -10.51,-11.1 -8.57,0 -17.75,0 -28.26,0 -4.05,3.9 -9.11,8.8 -14.6,14 -4.05,0 -8.66,0 -13.08,0 -5.26,5.2 -10.33,10.1 -15.6,15.2 -32.44,0 -65.07,0 -97.1,0 -5.51,5.3 -10.59,10.1 -15.93,15.2 -46.59,0 -93.14,0 -138.38,0 -6.18,5.6 -11.33,10.2 -15.86,14.3 -14.85,-0.8 -28.74,1.7 -42.33,-2.1 -3.3,-3.5 -6.61,-7 -10.01,-10.6 -15.79,-4.3 -32.02,-1.1 -48.04,-2.2 -18.29,-1.3 -36.85,3 -54.17,-2.1 -4.04,-4.3 -7.34,-7.7 -11.33,-12 -13.13,0 -26.96,0 -40.8,0 -5.42,-5.1 -10.52,-9.9 -16.15,-15.2 -22.54,0 -45.81,0 -69.49,0 -4.7,4.6 -9.75,9.6 -14.93,14.6 -13.85,0 -27.83,0 -41.35,0 -5.36,5.2 -10.43,10.1 -14.6,14.2 -19.7,0 -38.24,0 -55.59,0 -6.07,-5.5 -11.21,-10.2 -15.71,-14.3 -50.15,0 -99.18,0 -148.21,0.1 -2.09,0 -4.18,1.2 -4.99,1.4 -6.16,5.3 -11.36,9.7 -15,12.8 -11.25,0.6 -20.25,1.1 -27.48,1.5 -4.99,5.3 -8.29,8.8 -12.35,13 -8.38,0 -17.51,0 -28.37,0 -3.76,-3.5 -8.87,-8.2 -14.62,-13.6 -22.39,0 -45.65,0 -68.9,0 -5.21,-5.1 -10.25,-10.1 -15.36,-15.1 -37.21,0 -74.56,0 -111.61,0 -5.22,5.1 -10.26,10 -15.51,15.2 -13.91,0 -27.81,0 -40.67,0 -5.92,5.4 -11.03,10.1 -14.63,13.5 -11.07,0 -20.17,0 -28.43,0 -2.5,-2.7 -4.28,-4.3 -5.78,-6.2 -8.94,-11.2 -26.8,-6.1 -34.04,-20.8 -0.67,-1.3 -4.15,-2 -6.13,-1.6 -11.31,1.8 -15.82,-8.1 -23.06,-14.6 -41.41,0 -83.34,0 -126.12,0 -4.4,4.4 -9.44,9.3 -14.61,14.4 -23.1,0 -46.45,0 -69.56,0 -5.17,-5.1 -10.21,-10 -15.43,-15.2 -13.92,0 -27.82,0 -43.06,0 -4.73,-12.9 -15.93,-14.9 -27.19,-15.7 -8.6,-9.1 -16.86,-17.8 -25.11,-26.5 -2.1,-0.6 -4.18,-1.4 -6.32,-1.8 -16.91,-3.3 -17.15,-3.2 -15.73,-17.7 13.36,-16.5 23.95,-29.6 33.32,-41.1 30.17,0 58.08,0 85.04,0 5.85,5.4 10.96,10.1 16.45,15.2 9.15,0 18.27,0 26.51,0 19.84,19.3 20.79,19.3 39.76,0.9 10.92,-1.4 21.95,-2.8 31.79,-4 4.39,-4.6 7.69,-8.1 11.42,-12.1 36.81,0 74.06,0 112.26,0 4.32,4.3 9.36,9.2 14.61,14.3 9,0 18.33,0 31.86,0 6.73,9.1 15.29,20.6 21.39,28.9 13.95,0 23.07,0 30.49,0 6.58,-5.8 11.77,-10.3 15.57,-13.6 11.05,-0.5 20.06,-0.9 27.49,-1.3 4.83,-5.1 8.14,-8.6 13.17,-13.9 35.37,0 72.5,-0.1 109.63,0.1 1.9,0 3.8,2.1 5.69,3.2 3.3,3.5 6.61,7 10.39,11 13.4,0 27.28,0 41.17,0 5.29,5.1 10.34,10.1 15.63,15.2 22.96,0 46.29,0 69.61,0 5.01,-4.9 10.05,-9.9 15.28,-15.1 9.18,0 18.44,0 26.87,0 5.71,-5.3 10.82,-10.1 15.53,-14.5 5.23,0.6 9.69,1.1 13.31,1.5 5.73,5 10.9,9.6 15.24,13.4 41.12,0 80.82,0 120.52,0.1 2.02,0 4.05,1.5 6.07,2.3 3.3,3.4 6.6,6.9 9.95,10.5 11.04,2.2 22.11,4.2 32.83,-1.2 3.41,-3.6 6.71,-7.1 10.54,-11.2 18,0 36.53,0 56.43,0 9.01,9.1 18.99,19.1 29.21,29.4 4.44,0 9.03,0 12.86,0 5.66,5.3 10.76,10.1 16.17,15.2 23.2,0 46.37,0 68,0 6.4,5.7 11.57,10.3 15.75,14 19.9,1.4 38.45,-2.2 56.39,1.9 6.51,7.8 12.54,15.4 23.85,12.8 11.73,-7.2 19.88,-19.4 30.23,-29.3 4.48,0 9.12,0 13.61,0 5.21,-5 10.26,-10 15.61,-15.2 4.33,0 8.92,0 13.33,0 7.46,-10.4 16.31,-17.2 28.39,-16 5.55,-4.9 10.72,-9.5 13.75,-12.1 11.74,0 20.78,0 28.7,0 4.4,4.6 7.71,8.1 11.7,12.3 19.7,1.9 40.04,2.1 58.44,0.1 5.18,-5.5 8.48,-9 12.33,-13 55.34,0 111.23,0 168.52,0 8.99,9 19,19 29.22,29.3 9.07,0 18.35,0 26.95,0 5.58,5.2 10.66,10.1 15.43,14.6 13,-1.7 13.05,-1.7 19.06,-6.7 13.71,-11.5 13.72,-11.6 28.81,-0.7 -0.02,24.1 -0.02,24.1 -5.04,34.9 -8.82,3.8 -18.1,1.7 -27.17,1.9" style="fil:#36454F;fill-opacity:1;fill-rule:nonzero;stroke:none" id="path288" transform="matrix(0.13333330353101047, 0, 0, -0.13333330353101047, -1484.3948974609375, 1611.423583984375)"/>
</svg>