<?xml version="1.0" encoding="utf-8"?>
<svg viewBox="823.3641 1222.1835 1604.5592 29.6402" width="1604.5592" height="29.6402" xmlns="http://www.w3.org/2000/svg">
  <defs/>
  <path d="m 18247.4,2756.7 c 21.5,-1.1 43.5,0.1 65,-1.1 11.4,-0.7 18,-6.2 15.9,-14.3 -1.2,-4.9 1.9,-8.7 10.5,-11.5 7.3,4.1 14.9,8.5 23.2,13.3 6.3,0.1 13.6,0.2 20.6,0.4 8.1,4.8 16,9.4 24.2,14.2 10.8,-9.9 26.5,-12.9 45.3,-14.4 8.9,-0.7 16.2,-7.8 23.2,-11.4 23.7,1.3 45.7,-0.8 67,3.6 28.5,17.1 30.4,17.1 61.3,0.2 7.2,-0.2 14.3,-0.4 22.3,-0.7 7.5,4.5 15.5,9.2 23.5,13.9 7.7,-4.2 15.7,-8.5 24.2,-13.1 6.8,0.1 14,0.2 20,0.4 8.6,-4.5 16.3,-8.4 23.2,-12 9.4,5.1 17.5,9.5 24.3,13.2 79.7,1.5 157.2,3 234.7,4.3 3.2,0 6.4,-1.2 9.7,-1.9 5.2,-3.1 10.5,-6.3 15.7,-9.4 21.6,-3.1 43.5,-0.5 67.2,-0.8 7,-3.6 15.1,-7.7 24.9,-12.7 160.1,2.8 322.2,5.3 484.5,7.6 8.4,-4.6 16.4,-9 25.1,-13.8 6.4,0.1 13.8,0.2 21.3,0.3 7.7,4.6 15.7,9.3 23.2,13.7 7.8,0.1 15,0.2 21.2,0.3 8.9,-4.8 17,-9.2 23.2,-12.6 39,0.6 75.6,1.1 109.8,1.5 10.1,5.3 18.2,9.7 25.2,13.5 23.6,-0.6 45.6,2.3 67,-1.4 28.8,-16.2 30.7,-16.1 62.1,2.2 7.6,-4.1 15.3,-8.2 23.6,-12.7 28.6,0.3 58.1,0.7 87.3,1 8.3,-4.6 16.3,-9.1 23.8,-13.4 37.3,0.4 74.1,0.8 109.7,1.2 8.9,5 16.9,9.6 24.4,13.8 8.2,-0.5 15.2,-0.9 21,-1.2 9.1,-4.5 17.3,-8.7 24.2,-12.2 79.6,0.8 157.1,1.4 234.6,2.2 3.2,0 6.4,1.3 9.6,2.1 28.6,16.7 30.5,16.7 62.1,-1.1 7.5,4.3 15.2,8.6 23.4,13.2 13.9,0.1 28.6,0.3 43.5,0.4 7.8,-4.5 15.8,-9 23.2,-13.2 15.3,0.1 30,0.2 43.3,0.3 9,5 17,9.5 24.5,13.7 8.2,-0.5 18.8,0.7 21.7,-1.7 12.1,-9.7 29.2,-11.2 46.2,-14.3 6.2,-1.1 10.6,-6.1 15.9,-9.3 20,5.5 30.9,17.4 46.7,25.8 8,-4.5 15.9,-9 23.1,-13.1 59.8,0.3 118.7,0.6 176.3,0.9 9,5 17.1,9.5 23,12.8 31.9,0.1 61.1,0.2 89.3,0.3 11.2,-6.9 20.1,-12.6 37,-13.6 12.2,-0.8 23.2,-8.6 33.6,-12.9 12.7,0.1 23.8,0.1 36.5,0.1 7.2,3.9 15.3,8.3 24.7,13.4 42.3,0.1 86.4,0.2 132.1,0.3 6.7,-3.8 14.7,-8.4 23.1,-13.2 14.1,0.1 28.8,0.1 43.4,0.1 8,4.6 16,9.3 23.1,13.4 23.1,0 45.1,0 65.5,0.1 8.8,-4.7 16.4,-8.7 23.6,-12.5 21.8,9 28.8,29.3 63.4,26.5 6.9,-3.8 15,-8.1 23.8,-12.9 7.2,4.1 15,8.5 22.5,12.7 7.7,-4.4 15.7,-9 23.2,-13.4 8,-0.3 15.2,-0.6 21.4,-0.8 8.1,-4.3 15.7,-8.2 22.4,-11.8 9.7,5 17.9,9.1 24.7,12.6 50.4,-0.1 98.4,-0.2 146.3,-0.1 3.2,0 6.3,1.5 9.5,2.3 5.2,3.2 10.4,6.5 16.9,10.5 7.5,-3.9 15,-7.9 23.8,-12.6 116.3,-0.2 234.2,-0.5 353.5,-1 6.8,3.9 14.8,8.5 22.6,13 7.8,-4.5 15.7,-9.2 22.6,-13.2 30.7,-0.1 60.1,-0.3 87.8,-0.4 8.8,4.6 16.4,8.5 23.1,12 9.7,-5 17.9,-9.2 25.3,-13 16.1,0.4 30.3,0.7 41.9,1 7.8,4.7 13,8 19.5,12 13.1,-0.1 27.5,-0.2 42,-0.3 8.7,4.7 16.8,9 25.5,13.7 7.2,-4.2 15,-8.6 23,-13.2 36.4,-0.2 73.3,-0.5 109.6,-0.7 8,-4.6 15.7,-9 22.9,-13.2 8.8,4.7 16.9,9 25.6,13.7 117.8,-0.9 235.5,-1.9 351.9,-3 6.5,4 11.8,7.2 20.9,12.7 21.3,-0.2 46.6,-0.4 72,-0.7 29.5,-0.3 59,-0.6 88.5,-0.9 25.9,-0.3 51.7,-0.6 77.5,-0.9 29.5,-0.3 59,-1 88.5,-0.9 25.4,0.1 50.9,-3 75.7,1.2 5.5,3.3 10.7,6.5 17.3,10.5 7.4,-4 14.9,-8.1 23.1,-12.5 7.3,4 15,8.3 23.1,12.7 29,-0.3 58.5,-0.7 87.6,-1.1 8.1,-4.9 16.1,-9.6 23.7,-14.1 7.8,0.2 15,0.4 21.3,0.5 8.7,4.6 16.8,8.8 25.5,13.4 95.7,-1.3 191.3,-2.7 285.5,-4.2 6.6,4 11.8,7.1 17.2,10.3 13.6,4.3 28.3,1.5 42.5,1.6 18.5,0.2 36.9,-0.8 55.4,-0.7 14.2,0.1 28.9,-2.6 42.5,1.5 5.4,3.3 10.7,6.4 15.9,9.6 7,0.4 14.1,0.8 22.4,1.3 7.4,-4.1 15.4,-8.6 24.1,-13.5 7.3,4 15.1,8.2 23.1,12.6 6.9,-0.1 14.3,-0.2 21.1,-0.3 8,-4.7 15.7,-9.2 22.9,-13.4 8.8,4.5 16.9,8.8 25.7,13.3 58.7,-1 117.4,-2.1 174.7,-3.2 6.6,4 11.9,7.1 21,12.6 143.2,-2.7 290.2,-5.8 437.3,-8.9 3.2,0 6.3,1.4 9.5,2.1 5.3,3.2 10.5,6.3 17.1,10.2 7.4,-4.1 14.9,-8.2 23.1,-12.7 7.2,3.9 15,8.1 23.1,12.5 6.9,-0.2 14.2,-0.3 21.1,-0.5 7.9,-4.7 15.6,-9.2 22.8,-13.5 8.8,4.5 17,8.7 25.8,13.2 21.8,-0.5 43.5,-0.9 62.6,-1.4 10.8,3.6 13.6,11.6 26.3,9.9 5.2,-3.4 10.4,-6.8 18,-11.7 34,-0.8 70.6,-1.8 107.2,-2.4 3,-0.1 5.9,1.8 8.9,2.9 5.3,3.1 10.5,6.2 16.4,9.7 21.4,-0.5 43.4,-1.1 65.3,-1.6 8.4,4.6 16.4,9 24.6,13.5 66.1,-1.6 132.5,-3.3 198.3,-5.1 8.2,4.4 16,8.5 23.3,12.4 8.7,-5 16.7,-9.6 22.3,-12.7 24.9,-0.7 46.6,-1.3 67.1,-1.8 6.6,3.9 11.9,7 17.4,10.2 24.8,3.8 50.4,0.3 75.7,0 25.8,-0.2 51.7,-1.3 77.5,-2 29.5,-0.8 59,-2 88.5,-2.4 25.3,-0.3 50.9,-3.9 75.7,0 5.5,3.2 10.8,6.3 18.6,10.9 22.9,-0.7 48.5,-2.1 73.9,-2 28.8,0.1 58.1,-5.2 84.8,-0.5 7,4.1 12.2,7.1 18.2,10.6 73,-2.2 146.6,-4.5 220.2,-6.9 8.4,4.6 16.5,8.9 24.7,13.4 43.9,-1.4 88.2,-2.8 132.1,-4.3 8.3,4.5 16.3,8.8 24.7,13.3 66.3,-2.1 132.5,-4.4 197.3,-6.6 9.3,4.7 17.5,8.8 26.3,13.3 51.4,-1.8 102.7,-3.6 152.7,-5.4 6.6,3.8 11.9,6.9 21.2,12.2 21.2,-0.7 46.5,-1.6 71.9,-2.5 25.8,-1 51.6,-2.3 77.5,-2.8 25.3,-0.4 50.8,-4.2 75.8,-0.6 5.4,3.1 10.7,6.2 18.8,10.8 22.7,-0.8 48.2,-2.4 73.6,-2.6 28.9,-0.1 58.1,-5.6 85,-1.2 6.9,4 12.2,7 18.2,10.4 58.1,-2.2 117,-4.5 175.9,-6.8 8.4,4.5 16.5,8.7 24.9,13.2 65.9,-2.6 132.3,-5.3 198.4,-8 8.3,4.4 16.4,8.7 24.8,13.1 58.9,-2.4 117.8,-4.9 175.3,-7.3 9.2,4.6 17.4,8.7 26.2,13 51.4,-2.1 102.7,-4.3 152.9,-6.5 6.5,3.7 11.8,6.7 17.3,9.8 21.1,3.8 43,-0.1 64.6,-0.5 18.4,-0.3 36.9,-1.8 55.4,-2.2 21.6,-0.5 43.5,-4.1 64.8,-0.8 5.5,3.1 10.8,6.1 16.2,9.1 21.5,2.3 43.4,-0.7 65.2,-1.3 18.4,-0.5 36.9,-2 55.4,-2.3 21.5,-0.4 43.4,-4.8 64.1,-0.2 5.7,3.2 11,6.2 17.1,9.6 58,-2.7 116.9,-5.4 175.9,-8.2 16.1,8.6 32,16.9 47.5,25.1 8.4,-5.1 16.3,-9.9 23.7,-14.3 8.2,0.2 15.3,0.3 21,0.4 9.2,4.3 17.5,8.1 24.3,11.1 24.1,-0.2 46,-4.1 67.5,-0.8 5.3,3 10.6,6 18.8,10.5 30,-1.4 62.9,-3.7 95.7,-4.4 15.9,-0.3 35.8,-7.9 46.8,5.4 -14.3,11.4 -34.2,7 -51.4,8.1 -51.6,3.2 -103.3,5.3 -155.9,7.8 -7.6,-3.9 -15.7,-8.1 -24.3,-12.5 -73.2,3.5 -147,7 -220.5,10.4 -8.3,-4.3 -16.4,-8.6 -24.8,-13 -81,3.8 -162.1,7.5 -241.9,11.1 -9.1,-4.6 -17.3,-8.6 -26.1,-13 -73.5,3.3 -147.1,6.5 -219.4,9.7 -6.5,-3.7 -11.8,-6.7 -17.4,-9.9 -24.7,-3.9 -50.3,0.3 -75.6,0.9 -25.8,0.6 -51.6,2.1 -77.5,3.2 -25.8,1.1 -51.6,2.1 -77.5,3.2 -25.8,1.1 -51.7,2.5 -77.5,3.1 -25.4,0.7 -50.9,4.3 -76,1.2 -5.4,-3.2 -10.8,-6.2 -19.1,-10.9 -18.6,0.7 -40.4,1.6 -62.2,2.5 -18.5,0.7 -36.9,1.9 -55.4,2.1 -21.5,0.2 -43.4,4.4 -64.3,-0.2 -5.5,-3.2 -10.8,-6.2 -17,-9.7 -43.2,1.7 -87.2,3.4 -133.2,5.1 -6.5,4 -14.4,8.8 -22.8,14 -28.7,1.1 -58.2,2.2 -87.9,3.3 -7.9,-4.1 -16,-8.4 -24.6,-12.9 -73.2,2.7 -147,5.4 -219.6,8 -8.9,-4.6 -17.1,-8.8 -25.7,-13.2 -81,2.9 -161.9,5.8 -241.8,8.5 -6.4,-3.7 -11.7,-6.7 -17.2,-9.9 -20.9,-4.3 -42.9,-0.5 -64.4,-0.3 -18.5,0.1 -36.9,1.4 -55.4,1.6 -21.7,0.3 -43.6,3.4 -64.9,0.3 -5.5,-3.2 -10.8,-6.2 -16.1,-9.4 -16.4,2.3 -23.1,18.1 -46.5,12.9 -6.7,-3.5 -14.8,-7.8 -23.5,-12.3 -58.1,1.9 -117.1,3.7 -175.8,5.6 -8.4,-4.5 -16.5,-8.8 -25,-13.4 -73.4,2.3 -147.1,4.5 -219.8,6.7 -8.9,-4.6 -17,-8.9 -25.6,-13.4 -58.8,1.8 -117.6,3.5 -175.4,5.1 -6.3,-3.7 -11.5,-6.8 -18.1,-10.6 -27.3,-4.1 -56.6,0.5 -85.5,0.5 -25.8,0 -51.7,1.7 -77.5,1.9 -29.1,0.2 -58.3,3.8 -86.5,0.8 -6,-3.5 -11.3,-6.6 -18.3,-10.7 -7.2,3.9 -14.6,7.9 -23,12.5 -7.1,-3.7 -14.9,-7.7 -23.3,-12.1 -80.1,2.1 -161.3,4.2 -242.1,6.2 -8.4,-4.6 -16.5,-8.9 -24.9,-13.5 -88.1,2.1 -176.6,4.2 -264.2,6.2 -8.7,-4.7 -16.8,-9 -25.4,-13.6 -95.7,2.2 -191.4,4.3 -285,6.2 -9.9,-5 -18.1,-9.1 -25.2,-12.6 -116.4,2.4 -230.8,4.6 -345.2,6.6 -3.2,0.1 -6.5,-1.1 -9.8,-1.7 -5.2,-3.1 -10.5,-6.3 -15.9,-9.5 -25,-3.6 -50.6,-0.6 -76,-0.6 -25.8,0.1 -51.7,0.9 -77.5,1.3 -29.5,0.5 -59.1,1.4 -88.6,1.4 -25.2,-0.1 -50.8,3.5 -75.4,-1.2 -5.6,-3.3 -10.8,-6.5 -17.1,-10.3 -116.8,1.9 -234.6,3.6 -352.5,5.2 -8.5,-4.6 -16.6,-8.9 -25.6,-13.8 -102,1.4 -205.2,2.7 -308.4,3.9 -8.2,-4.7 -16.2,-9.2 -24,-13.7 -7.5,0.1 -14.9,0.2 -21.4,0.3 -8.2,4.6 -15.8,9 -22.9,13 -9.1,-4.7 -17.2,-8.9 -24.3,-12.6 -160.5,1.7 -319.2,3.2 -477.9,4.4 -3.3,0 -6.6,-1.1 -9.9,-1.7 -17.5,-17.2 -42.9,-12.4 -69.8,-8.5 -6.6,8 -18.4,12.5 -36.7,10.8 -6.8,-3.7 -14.8,-8.1 -23.9,-13 -190.5,1.3 -382.2,2.3 -574.1,2.9 -8.2,-4.7 -16.1,-9.3 -24.2,-14 -7.1,0.1 -14.5,0.1 -21.3,0.1 -8.3,4.8 -16.3,9.4 -23,13.3 -38.3,0.1 -75,0.2 -110,0.3 -9.5,-5.1 -17.6,-9.5 -23.4,-12.6 -561.3,0.5 -1122.5,-1.6 -1683.7,-6.2 -21.3,12.4 -21.3,12.4 -41.8,-0.2 -7.4,3.7 -15,7.5 -24.9,12.6 -211.1,-2.1 -425,-4.6 -638.8,-7.4 -26.1,-0.4 -26,-0.2 -38.5,-23 -1.1,-2 -4.8,-4.4 -7.7,-4.7 -2.2,-0.2 -6.9,2.3 -7.5,4 -2,6.4 -3.2,13 -4,19.6 -1.7,14 -5.6,16.8 -23.7,16.6 -136.5,-2 -272.9,-4.1 -407.8,-6.4 -9.3,-5.3 -17.3,-9.9 -24.5,-14.1 -29,-2 -30.2,-2.1 -30.9,-13.4 -0.4,-5.1 -0.1,-9.4 -7.1,-12.1 -14.2,-5.3 -26.8,-4.3 -37.1,3.4 6.9,5 13.8,9.9 20.6,14.8 -11.2,6.7 -21.7,13 -32.4,19.4 -7.1,-0.2 -14.5,-0.3 -28.7,-0.6 -10.3,-8.4 -23.7,-19.4 -34.6,-28.3 -34,1.3 -33.9,1.4 -36.5,12.6 -3.1,13.3 -20,18.5 -36.8,11.6 -3.1,-1.3 -5,-3.5 -7.9,-4.9 -20.7,-10.2 -25.2,-10.2 -45.6,0.4 -2.8,1.4 -5.3,3.1 -8.7,5.1 -13.8,-0.2 -28.3,-0.5 -42.9,-0.8 -8.4,4.7 -16.5,9.1 -24.5,13.5 -7.6,-4.6 -15.5,-9.3 -23.2,-13.9 -7.6,0.1 -14.8,0.1 -21.3,0.2 -8.6,4.5 -16.7,8.8 -24.3,12.8 -18.2,-2.6 -38.2,4 -52.2,-7.6 7,-4.7 14,-9.4 21,-14.1 -2.5,-1.7 -5,-4.7 -7.7,-4.9 -36.5,-1.6 -73.1,-3.1 -109.6,-3.7 -4.4,-0.1 -8.9,4.7 -13.3,7.3 18.8,12.8 18.8,12.8 9,19.7 -22,-0.5 -44.2,-0.8 -66.3,-1.6 -2.7,-0.1 -5.9,-2.9 -7.5,-4.8 -1,-1.2 -0.4,-3.7 1,-4.7 4.9,-3.4 10.4,-6.3 15.7,-9.5 -15.9,-12 -16,-12 -41.4,-2.6 -2.7,6.2 3.3,14 -14.6,20.8 -18.4,-2.3 -43.2,1.8 -67.9,-3.9 -5.2,-3.3 -10.4,-6.7 -16.9,-10.9 -7.5,3.8 -15.1,7.6 -24,12 -12.9,-0.3 -27.5,-0.6 -42.6,-1 -3.8,-2.9 -11,-6 -11.7,-9.6 -1.9,-9.2 -0.5,-18.8 -22.5,-18.2 -2.5,-5.4 -0.1,-10.9 8.1,-11.3" style="fill:#36454F;fill-opacity:1;fill-rule:nonzero;stroke:none" id="path390" transform="matrix(0.13333330353101047, 0, 0, -0.13333330353101047, -1484.3948974609375, 1611.423583984375)"/>
  <path d="m 17498.1,2763.4 c 21.9,-0.5 43.9,0.8 64.5,1.4 8.8,-4.6 16.5,-8.5 23.6,-12.2 9,5.1 17.1,9.6 22.5,12.6 61.9,1.7 120.4,3.2 177.5,4.7 6.6,-3.9 11.9,-7 18.1,-10.7 27.7,-3.6 56.8,0.5 85.7,0.5 25.7,0 51.4,1.6 77.2,1.7 29,0.2 58.1,3.5 86.3,0.7 5.9,-3.5 11.1,-6.6 16.4,-9.7 45.6,-2.6 45.9,-2.6 68.5,12.5 7.5,-3.8 15.2,-7.7 23.9,-12.1 13.1,0.3 27.7,0.6 43.5,1 6.9,4.3 13.8,12 22.7,13.2 10.1,1.3 14.8,1.1 10.5,7.8 -1.3,1.9 -4.8,4.3 -7.7,4.5 -14.1,0.8 -28.5,0.8 -42.7,1.3 -9.3,0.3 -13.6,3.9 -16.1,14.3 -2.7,11.1 -2.7,11.2 -31.4,12.1 -7.4,-4.2 -15.3,-8.8 -23.8,-13.7 -6.4,-0.4 -13.6,-0.8 -21.4,-1.2 -7.5,-4.6 -15.4,-9.4 -23.4,-14.3 -7,-0.1 -14.4,-0.3 -21.7,-0.5 -2.7,1.6 -6.1,2.8 -7.8,4.7 -6.3,7.2 0.3,18.2 -16.2,22 -44.3,-1.1 -88.3,-2.2 -131.1,-3.3 -8.5,-4.8 -16,-9.1 -23.5,-13.4 -11.3,6.3 -19.4,14 -37,12.4 -10.4,-1 -21.2,0 -30.4,0.1 -6.6,3.9 -11.9,7 -17.1,10.1 -3.3,0.6 -6.5,1.8 -9.7,1.7 -40.5,-0.9 -80.9,-1.7 -121.3,-3.4 -5.6,-0.2 -10.9,-4.9 -16.7,-7.7 0.1,-4.4 0.1,-8.9 0.3,-14.9 -9.2,-2.2 -18.8,-4.5 -28.5,-6.9 -9.4,4.8 -17.5,8.9 -26.2,13.3 -6.3,0.1 -13.4,0.2 -21.4,0.4 -7.5,-4.6 -15.3,-9.4 -23.7,-14.5 -13.9,-0.4 -28.6,-0.5 -43.3,-1.4 -2.7,-0.1 -6,-2.7 -7.7,-4.6 -2.8,-3.3 0.3,-8.3 8.6,-8.5" style="fill:#36454F;fill-opacity:1;fill-rule:nonzero;stroke:none" id="path392" transform="matrix(0.13333330353101047, 0, 0, -0.13333330353101047, -1484.3948974609375, 1611.423583984375)"/>
  <path d="m 17330,2792 c 1,-6.8 -2.8,-14.2 13.5,-19.6 31.4,0.9 67.3,1.6 103.2,3.2 5.5,0.3 10.9,4.7 16.3,7.2 -5.8,2.1 -11.4,5.8 -17.4,6 -28.5,0.9 -57.2,-3.5 -93.3,0.4 -0.1,8.6 -0.2,13.1 -0.3,17.5 -22.3,9.4 -22.4,9.4 -43.8,-1 7.4,-4.7 14.8,-9.3 21.8,-13.7" style="fill:#36454F;fill-opacity:1;fill-rule:nonzero;stroke:none" id="path394" transform="matrix(0.13333330353101047, 0, 0, -0.13333330353101047, -1484.3948974609375, 1611.423583984375)"/>
</svg>