<?xml version="1.0" encoding="utf-8"?>
<svg viewBox="825.4185 476.5083 1600.4519 31.1419" width="1600.4519" height="31.1419" xmlns="http://www.w3.org/2000/svg">
  <defs/>
  <path d="m 28044.3,8454.3 c -44.7,4.2 -76.8,-1.3 -107.7,4.8 -2.8,0.5 -6.7,3.4 -6.1,4.6 1,1.9 5.1,4.7 8,4.7 112.1,0.7 224.3,1.1 336.4,2 4.6,0 9,5 12.7,7.3 -11.2,6.8 -22,13.4 -32.5,19.9 -9.2,-4.7 -17.6,-9 -25.3,-12.9 -9.8,4.8 -18.6,9.1 -26.6,13 -33.4,-1.2 -65.3,1.8 -96,-1.6 -6.5,-3.7 -12.1,-6.9 -19.8,-11.3 -7.9,3.6 -15.9,7.4 -26.1,12.1 -21.3,0 -45,0 -68.8,0 -9.4,4.8 -18.1,9.2 -27.7,14.2 -6.8,0 -14.7,0 -23.1,0 -8.2,-4.4 -17,-9 -25.3,-13.4 -24.4,0 -48.4,0 -71.3,0 -9.1,4.6 -17.5,8.8 -25.1,12.6 -10,-4.8 -18.9,-9.1 -26.5,-12.7 -94.5,0 -186.9,-0.1 -279.3,0 -3.5,0 -7.1,1.3 -10.6,2 -31.5,16.6 -33.5,16.6 -67.8,-1.5 -22.7,0 -46.5,0 -72.6,0 -7,3.6 -15.7,8.2 -24.5,12.7 -8.3,-4.3 -17,-8.8 -25.1,-13 -8.4,0 -16.3,0 -22.9,0 -9.3,4.6 -17.6,8.7 -25.1,12.5 -10.2,-4.9 -19.1,-9.2 -26.6,-12.7 -22.4,0 -42.5,-0.2 -62.6,0.1 -3.5,0 -7,1.3 -10.5,2 -5.7,3.3 -11.3,6.5 -17.7,10.1 -30.8,3.4 -62.7,1.1 -94.4,1.4 -56.2,0.4 -112.5,0.1 -168.7,0 -3.3,0 -6.6,-1.9 -9.9,-2.9 -5.6,-3.2 -11.3,-6.5 -17.8,-10.2 -8.3,4.3 -16.7,8.5 -25.7,13.1 -39.2,0 -79.3,0 -119.6,0 -8.5,-4.5 -17.2,-9.1 -25.7,-13.7 -8.2,0.3 -16.1,0.5 -23.1,0.7 -9.3,4.6 -18.1,9.1 -24.6,12.4 -98.9,0 -195,0 -288.3,0 -11.2,-5.3 -20.1,-9.5 -27.8,-13.2 -33.7,1.4 -65.6,-2.1 -98.3,2.1 -8.4,8.1 -20.4,13.5 -41,11.4 -7.1,-3.5 -15.9,-7.8 -25.5,-12.6 -7.9,4.1 -16.3,8.4 -24.5,12.7 -8.4,-4.5 -17.1,-9 -24.6,-13.1 -81.6,0 -161.7,0 -240.2,0 -9.5,4.7 -17.8,8.7 -25.9,12.6 -7,-4 -12.7,-7.3 -19.5,-11.1 -30.1,-4.4 -62,-1 -93.5,-1.7 -28.1,-0.6 -56.3,-0.1 -84.4,-0.1 -32.1,0 -64.3,0 -96.4,0 -32.1,0 -64.3,0 -96.4,0 -28.1,0 -56.3,0 -84.4,0 -32.1,0 -64.3,0 -96.4,0 -32.1,0 -64.3,0 -96.4,0 -28.1,0 -56.3,0.4 -84.4,-0.2 -31.5,-0.7 -63.4,2.6 -93.6,-1.7 -6.7,-3.8 -12.4,-7 -18.1,-10.3 -3.6,-0.5 -7.2,-1.5 -10.8,-1.5 -172.8,-0.1 -345.5,-0.1 -518.2,-0.1 -8.1,0 -16.2,0.3 -24.1,-0.1 -3.4,-0.2 -6.5,-2.1 -9.7,-3.1 -5.7,-3.3 -11.4,-6.5 -17.8,-10.1 -200,0 -400.6,0 -601.3,0 -9,-4.8 -17.6,-9.4 -26.1,-13.9 -8.5,4.5 -17.2,9.1 -24.6,13 -49.6,0 -97.6,0 -143.7,0 -9.7,-4.6 -17.9,-8.6 -25.3,-12.1 -10.9,3.5 -13.7,11.6 -27.7,10.1 -5.7,-3.3 -11.4,-6.5 -17.1,-9.8 -3.6,-0.5 -7.3,-1.4 -10.9,-1.4 -140.6,-0.1 -281.2,-0.1 -421.8,-0.1 -8.1,0 -16.2,0.3 -24.1,-0.1 -3.4,-0.2 -6.4,-2.1 -9.6,-3.2 -5.7,-3.3 -11.4,-6.5 -17.7,-10.1 -200.1,0 -400.8,0 -601.4,0 -9,-4.8 -17.7,-9.4 -26.6,-14.1 -240.6,0 -481.6,0 -722,0 -9.1,-4.8 -17.8,-9.4 -18.4,-9.7 -34.4,-10.3 -40.8,6.6 -53.7,8.8 -20.7,0 -36.3,0 -50.4,0 -7.2,-4.1 -12.9,-7.4 -18.6,-10.6 -3.5,-0.7 -7,-2.1 -10.4,-2.1 -84.4,-0.2 -168.8,-0.2 -253.1,0 -3.4,0 -6.8,1.6 -10.1,2.5 -5.7,3.2 -11.4,6.5 -18.2,10.4 -8.2,-4 -16.5,-8.1 -25.9,-12.7 -127,0 -255.4,0 -383.2,0 -9.2,-4.8 -17.9,-9.3 -26.3,-13.7 -8.7,4.6 -17.4,9.1 -24.5,12.8 -50.1,0 -98,0 -143.8,0 -10.6,-5.1 -19.4,-9.4 -27.1,-13.2 -472,0 -942,0 -1412,-0.1 -3.6,0 -7.1,-1.1 -10.7,-1.8 -5.7,-3.2 -11.3,-6.5 -19,-10.8 -7.8,3.6 -15.9,7.4 -25.3,11.7 -7.6,-3.8 -15.9,-7.9 -24.2,-12.1 -8.3,4.3 -16.9,8.7 -25.1,12.9 -8.3,0 -16.3,0 -23.2,0 -9.5,-4.8 -18.2,-9.3 -26.4,-13.6 -8.8,0.5 -16.5,0.9 -23,1.2 -8.9,4.2 -17.1,8 -24.9,11.6 -33.4,-17.6 -35.4,-17.6 -69.7,0.5 -22.8,0 -46.6,0 -72.6,0 -7.1,-3.7 -15.8,-8.2 -25.2,-13.1 -231.9,0 -464.8,0 -697.5,0 -9,-4.7 -17.7,-9.3 -26,-13.6 -16.4,0 -32.3,0 -46.9,0 -9.3,4.6 -17.6,8.7 -25.8,12.8 -6.8,-3.9 -12.5,-7.1 -19.2,-11 -13.7,-4.1 -29.8,-1.9 -45.2,-2 -217,-0.1 -433.9,0 -650.8,-0.4 -6.3,0 -12.5,-4.4 -18.6,-6.7 0,-4.6 0,-9.2 0,-13.7 2.9,-1.6 5.3,-4.1 8.7,-4.7 7.3,-1.2 15.3,-1.1 22.6,-2.1 14.8,-2.2 22.3,-13.6 15,-21.5 -4.3,-4.7 -11.6,-5.4 -19.7,-6.2 -21.7,-1.9 -27,-4.1 -23.3,-8.3 7,-7.9 20.9,-4.5 32.1,-5.2 8.7,-4.6 17.4,-9.2 26.5,-14 144.2,0 288.7,0 431.8,0 9.8,-5 18.6,-9.5 25.1,-12.8 90.9,0 178.9,0 265.7,0 6.9,4 12.6,7.2 22.8,13.1 26.9,0 58.5,0 90,0 28.2,0 56.3,0 84.4,0 32.1,0 64.3,0 96.4,0 32.1,0 64.3,0 96.4,0 32.2,0 64.3,0 96.4,0 28.1,0 56.3,0 84.4,0 32.1,0 64.3,0 96.4,0 32.1,0 64.3,0 96.4,0 32.1,0 64.3,0 96.4,0 28.1,0 56.3,-0.5 84.4,0.1 31.6,0.6 63.4,-2.5 93.8,1.6 6.6,3.8 12.3,7 18,10.2 3.6,0.6 7.2,1.7 10.8,1.7 317.3,0.1 634.7,0.1 952,0.1 8,0 16.1,-0.3 24.1,0.2 3.4,0.1 6.5,1.9 9.8,2.9 5.7,3.2 11.4,6.5 17.9,10.2 215.9,0 432.5,0 649.3,0 9.1,4.8 17.7,9.4 26.8,14.1 23.5,0 47.5,0 71.3,0 8.6,-4.4 17,-8.8 25,-13 9.4,4.7 18.2,9.1 27.6,13.9 176.4,0 352.8,0 527.7,0 34.2,17.9 35.8,17.9 69.7,0.1 8,3.8 16.2,7.8 25.9,12.4 206.9,0 415.6,0 624.3,0 9,4.8 17.7,9.4 26.6,14.2 208.4,0 417.3,0 625.7,0 9,4.8 17.7,9.4 26.7,14.2 184.6,0 369.2,0 552,0 10.2,5 19,9.4 28.5,14.1 136.2,0 272.4,0 405.5,0 11.8,3.9 14.7,12 28.6,10.5 5.7,-3.3 11.4,-6.5 19.8,-11.3 37,0 76.9,-0.1 116.7,0.1 3.2,0 6.4,2.1 9.6,3.2 5.7,3.3 11.4,6.5 17.5,10 8.4,-4.4 16.8,-8.7 24.9,-12.9 8.3,4.2 16.7,8.5 24.5,12.5 9.1,-4.3 17.2,-8.2 25.2,-12 7.3,4.1 13,7.4 18.9,10.7 27.1,4.3 54.9,1.7 82.5,2 32.2,0.5 64.3,0.1 96.5,0.1 28.1,0 56.2,0 84.3,0 28.1,0 56.2,0 84.4,0 28.1,0 56.2,0 84.3,0 32.2,0 64.3,-0.4 96.4,0.2 27.5,0.4 55.4,-2.7 82.2,2.3 6,3.4 11.6,6.6 17.3,9.9 3.7,0.4 7.4,1.3 11.1,1.3 172.7,0.1 345.4,0.1 518.2,0.1 8,0 16.1,-0.4 24,0.1 3.4,0.2 6.4,2.2 9.6,3.3 5.7,3.3 11.4,6.5 17.3,9.9 8.5,-4.4 17,-8.9 25.4,-13.2 16.1,0 32.1,0 47.3,0 9.3,4.8 18,9.4 27.2,14.2 305,0 610.1,0 912.9,0 9.9,4.7 18.1,8.5 26,12.2 7.4,-4.2 13.1,-7.4 18.8,-10.7 7.5,-0.7 15,-1.9 22.6,-2 32.1,-0.2 64.2,-0.2 96.4,0 3.3,0.1 6.7,1.8 10,2.7 5.7,3.2 11.4,6.4 18.2,10.3 14.6,0 30.4,0 48.7,0 6.8,-3.5 15.5,-7.9 25.1,-12.8 14.8,0 30.8,0 47.2,0 5.3,2.8 11.1,5.9 16.9,9 2.8,1.4 5.7,2.7 8.5,4.1 5.7,-3.3 11.2,-6.6 17.1,-9.7 2.8,-1.4 6.2,-2.5 9.4,-3.7 7.7,0.4 15.4,0.8 23.2,1.2 33.2,17.5 35.1,17.5 70.4,-1.2 31.9,0 67.6,-0.1 103.3,0.2 7.4,0 14.7,1.7 22,2.7 5.7,3.2 11.4,6.5 18.1,10.3 22.8,0 46.6,0 72.7,0 7,-3.6 15.7,-8.2 25.1,-13 15,0 31,0 47.3,0 8.4,4.4 17.2,9 25.4,13.3 8.4,0 16.3,0 23,0 9.7,-4.9 18.4,-9.4 18.6,-9.5 34.9,-10.1 40.8,7.5 50.8,8.7 24.2,0 39.7,0 53.3,0 7.6,-4.4 13.3,-7.6 19.4,-11 5.5,2 12.5,3.5 16.3,6.3 8.8,6.6 20.6,5.7 33.2,5.8 8.2,-4.3 16.9,-8.9 25.6,-13.5 8.4,4.5 17,9 24.8,13.1 57.1,0 113.1,0 168.6,0 23.9,-13.4 24.1,-13.5 34.7,-7 0.9,10.5 0.9,10.5 -6.7,18.6 -3.4,0.8 -6.8,2.4 -10.2,2.4 -36.1,0.2 -72.3,-0.2 -108.4,0.4 -6.1,0.1 -11.9,4.5 -17.9,6.9 11.4,6.5 22.8,13 34.1,19.4 7.8,0.3 15.7,0.6 24.3,0.9 8.3,-4.4 16.9,-9 25.9,-13.7 15.5,0 31.6,0 47.2,0 8.7,4.5 17.1,8.9 25,13 8.9,-4.3 17.1,-8.3 24.6,-11.9 10.7,3.5 13.7,11.5 28.2,10.1 10,-6.1 20.2,-12.3 29.8,-18.2 -8,-5.5 -14.5,-10.2 -18.5,-13 12,-8.5 22,-15.5 30.2,-21.3 301,0 301,0 331.6,7.3 -20.9,5.1 -26.7,17.1 -33.7,18.2" style="fil:#36454F;fill-opacity:1;fill-rule:nonzero;stroke:none" id="path426" transform="matrix(0.13333330353101047, 0, 0, -0.13333330353101047, -1484.3948974609373, 1611.423583984375)"/>
  <path d="m 28542.1,8442.2 c -87.6,0.6 -175.2,0.4 -262.8,0.4 -8.5,4.4 -17,8.9 -25.5,13.3 -11.4,-4.3 -13.6,-11 -10.9,-17.6 1.5,-3.6 9,-9 13.9,-9.1 95.5,-0.5 191,-0.4 286.6,-0.2 2.8,0 6.6,2.7 8.3,4.6 2.8,3.2 -1,8.6 -9.6,8.6" style="fil:#36454F;fill-opacity:1;fill-rule:nonzero;stroke:none" id="path428" transform="matrix(0.13333330353101047, 0, 0, -0.13333330353101047, -1484.3948974609373, 1611.423583984375)"/>
  <path d="m 28975.4,8442.2 c -64,0.4 -128,-0.1 -192.1,-0.6 -2.9,0 -6.7,-2.8 -8.1,-4.7 -0.8,-1.1 1.6,-4 3.8,-4.7 16.4,-5.1 37.3,-3.8 50.3,-14.4 6.4,-5.2 21.4,-4.1 31.7,-0.2 6.5,2.5 11.5,6.3 18.6,10.4 8.1,-3.9 16.3,-7.9 25.3,-12.2 7.8,4.1 16.2,8.5 24.9,13 15.5,0 31.6,-0.2 47.6,0.2 3,0.1 6.8,2.8 8.3,4.7 2.5,3.3 -1.6,8.5 -10.3,8.5" style="fil:#36454F;fill-opacity:1;fill-rule:nonzero;stroke:none" id="path430" transform="matrix(0.13333330353101047, 0, 0, -0.13333330353101047, -1484.3948974609373, 1611.423583984375)"/>
  <path d="m 28832.1,8470.3 c 9.7,0 17.6,-0.4 25.2,0.2 3.1,0.3 6.8,2.7 8.1,4.6 2.3,3.2 -1.8,8.2 -10.2,8.4 -39.2,0.7 -78.4,0.4 -117.6,0.1 -2.9,0 -6.3,-2.4 -8.4,-4.1 -1.4,-1.2 -2.1,-3.8 -0.9,-4.6 10.1,-6.8 20.7,-13.3 28.9,-18.6 20.2,0 35.9,0 53.8,0 6.6,4.4 14.2,9.4 21.1,14" style="fil:#36454F;fill-opacity:1;fill-rule:nonzero;stroke:none" id="path432" transform="matrix(0.13333330353101047, 0, 0, -0.13333330353101047, -1484.3948974609373, 1611.423583984375)"/>
  <path d="m 28686.4,8483.4 c -39.1,0.6 -78.4,0.9 -117.5,0 -8.5,-0.1 -12.1,-5.4 -9.3,-8.5 1.7,-1.9 5.2,-4.5 8.1,-4.6 15.7,-0.5 31.4,-0.2 49.3,-0.2 6.6,-4.4 14.2,-9.4 20.8,-13.8 10.1,0 17.9,0 26.9,0 10.2,6.1 20.9,12.6 32.2,19.4 -3.1,2.4 -6.7,7.7 -10.5,7.7" style="fil:#36454F;fill-opacity:1;fill-rule:nonzero;stroke:none" id="path434" transform="matrix(0.13333330353101047, 0, 0, -0.13333330353101047, -1484.3948974609373, 1611.423583984375)"/>
  <path d="m 28421.4,8470.1 c 33.6,0 65,-0.6 96.3,0.3 8.5,0.2 12.5,5.2 10.3,8.4 -1.4,1.9 -5.3,3.2 -8.3,4.9 -23.2,0 -46.7,0 -70.8,0 -8.2,4.3 -16.7,8.8 -25.5,13.4 -3.3,0.1 -7.2,0 -10.9,0.5 -8.8,1.2 -15.5,-0.1 -20.6,-4.1 -4.2,-3.2 -1.4,-5.8 6.5,-9.6 8.8,-4.3 16.1,-9.6 23,-13.8" style="fil:#36454F;fill-opacity:1;fill-rule:nonzero;stroke:none" id="path436" transform="matrix(0.13333330353101047, 0, 0, -0.13333330353101047, -1484.3948974609373, 1611.423583984375)"/>
  <path d="m 29050,8469.9 c -15.4,0 -31,0 -47.1,0 -8.3,4.5 -16.8,9 -25.2,13.6 -8.2,-4.4 -16.6,-8.9 -24.9,-13.4 -7.9,0 -15.8,0.4 -23.5,-0.3 -3.1,-0.2 -6.5,-2.6 -8.2,-4.5 -2.7,-3.1 0.8,-8.4 9.4,-8.6 39.1,-0.9 78.3,-0.8 117.5,-0.1 8.4,0.2 12.5,5.2 10.2,8.4 -1.3,1.9 -5.2,3.2 -8.2,4.9" style="fil:#36454F;fill-opacity:1;fill-rule:nonzero;stroke:none" id="path438" transform="matrix(0.13333330353101047, 0, 0, -0.13333330353101047, -1484.3948974609373, 1611.423583984375)"/>
  <path d="m 29174.6,8467.6 c 10.6,-6 13,-8.8 16.2,-9 42.5,-3.7 85.2,-3.7 127.7,0 3.2,0.2 5.7,3 8.5,4.6 -22.9,7.6 -22.9,7.6 -152.4,4.4" style="fil:#36454F;fill-opacity:1;fill-rule:nonzero;stroke:none" id="path440" transform="matrix(0.13333330353101047, 0, 0, -0.13333330353101047, -1484.3948974609373, 1611.423583984375)"/>
</svg>