<?xml version="1.0" encoding="UTF-8" standalone="no"?>
<!-- Created with Inkscape (http://www.inkscape.org/) -->

<svg
   version="1.1"
   id="svg2"
   width="5697.3335"
   height="5697.3335"
   viewBox="0 0 5697.3335 5697.3335"
   sodipodi:docname="vecteezy_tic-tac-toe-competition-grungy-brush-illustration_10732738.eps"
   xmlns:inkscape="http://www.inkscape.org/namespaces/inkscape"
   xmlns:sodipodi="http://sodipodi.sourceforge.net/DTD/sodipodi-0.dtd"
   xmlns="http://www.w3.org/2000/svg"
   xmlns:svg="http://www.w3.org/2000/svg">
  <defs
     id="defs6" />
  <sodipodi:namedview
     id="namedview4"
     pagecolor="#ffffff"
     bordercolor="#000000"
     borderopacity="0.25"
     inkscape:showpageshadow="2"
     inkscape:pageopacity="0.0"
     inkscape:pagecheckerboard="0"
     inkscape:deskcolor="#d1d1d1" />
  <g
     id="g8"
     inkscape:groupmode="layer"
     inkscape:label="ink_ext_XXXXXX"
     transform="matrix(1.3333333,0,0,-1.3333333,0,5697.3333)">
    <g
       id="g10"
       transform="scale(0.1)">
      <path
         d="M 42725,5 H 5 V 42725 H 42725 V 5"
         style="fill:#ffffff;fill-opacity:1;fill-rule:nonzero;stroke:none"
         id="path12" />
      <path
         d="M 42725,5 H 5 v 42720 h 42720 z"
         style="fill:none;stroke:#000000;stroke-width:10;stroke-linecap:butt;stroke-linejoin:miter;stroke-miterlimit:10;stroke-dasharray:none;stroke-opacity:1"
         id="path14" />
      <path
         d="m 16011.9,15354.5 c 39.6,-4.9 66.1,-12.1 92.2,-11 322.7,13.5 647.1,10.9 967.5,45.9 733.4,80.1 1467.5,123.7 2204.6,95 360.2,-14.1 718.3,-11.6 1073.9,51.8 156.2,27.8 310.8,27.9 468.8,12.5 128.7,-12.6 261,-10.6 389.6,3.9 149.5,16.8 293,3.3 440.6,-20.1 478.8,-76 959.5,-139.5 1438.9,-211.9 334.9,-50.7 670.3,-68.1 1006.7,-26.8 305.6,37.5 609.3,23.7 913.2,-15.9 71.2,-9.3 142.8,-16 214.5,-20.4 29.9,-1.9 60.4,5.1 90.8,8.1 8.2,23 17.7,39.2 19.6,56.3 55.5,500 110,999.2 33.1,1503.3 -54.8,359.2 -108.5,718.9 -108.9,1084.5 -0.3,386.1 -4.6,772.5 -21.6,1158.1 -17.3,392.6 9.7,781.1 75,1167 111.1,657.2 164.6,1317.9 151.4,1984.6 -8.1,408.4 -12.3,817 50.2,1223.2 34.8,226.2 57.7,454.2 84.3,681.5 4.5,38 0.7,76.9 0.7,116.9 -31.7,6.8 -48.7,13.6 -65.6,13.7 -422,1.3 -844.5,16.2 -1265.7,-0.9 -516.2,-20.8 -1030.6,-30.9 -1547.5,-4 -555.5,29 -1112.8,21.9 -1669.3,29 -170.6,2.2 -341.6,5.9 -511.7,-2.8 -520.4,-26.6 -1040.6,-52.7 -1561,-4.9 -344.3,31.6 -688,68.5 -1032.3,99.4 -384.7,34.5 -769.7,66.6 -1156,20.4 -146,-17.5 -153.9,-15.2 -165,-155.4 -23.8,-299.5 -58.9,-600.1 -52.8,-899.5 11.5,-570.5 24.2,-1140 -32.8,-1708.9 -33.6,-335 -58.7,-670.9 -95.6,-1005.5 -61.4,-557.7 -131.9,-1114.5 -193.4,-1672.2 -34,-307.6 -60.3,-616.2 -85,-924.7 -22.5,-281.8 -27.3,-565.3 -59.1,-845.8 -65.5,-576.4 -91.5,-1154.4 -99.6,-1733.8 -0.4,-26.1 4.1,-52.2 7.3,-90.6 z m 10594.4,9656.6 c 92.4,8.8 158.7,12.7 224.2,21.8 453.2,62.7 901.2,59.8 1351,-47.8 380.5,-91 770.2,-125.2 1163.9,-102.6 214.9,12.3 431.1,2.2 646.5,7.9 233.4,6.1 467.7,7.4 699.6,31 515.5,52.4 1031,61.6 1547.1,23.7 281.9,-20.7 563.3,-50.2 844.3,-81 603.7,-66.1 1210.2,-69.9 1816,-89.4 516.5,-16.6 1032.4,-4.7 1548.7,20.8 236.9,11.6 475.5,-10.9 713.4,-17 255.7,-6.5 511.5,-14.8 767.3,-17.1 350.2,-3.3 700.5,-0.2 1050.7,-3.4 70.9,-0.7 144.8,-7.9 211.9,-29.1 138.8,-43.9 222.5,-170.5 216.9,-307.3 -5.4,-131.3 -93.5,-245.2 -231.8,-281.4 -68.3,-17.8 -142.2,-22.8 -213,-20.3 -354.5,12 -709.3,21.8 -1063.1,45.4 -328.3,21.9 -654.9,7.3 -982.6,-7.3 -232.8,-10.4 -466.5,-3.2 -699.7,-0.5 -229,2.6 -457.9,11.6 -686.9,14 -543.3,5.7 -1086.7,4.6 -1629.9,15.1 -323.9,6.2 -645.7,-6.7 -968.3,-37.8 -685.6,-66.2 -1371.5,-55.3 -2057.9,3.3 -626.3,53.5 -1253.2,106.6 -1880.9,132.7 -366.6,15.2 -735.9,-14.8 -1103,-39.2 -430.3,-28.5 -859.4,-74.7 -1290.5,-15.2 -21.3,3 -43.8,-2.5 -78.8,-5 -4,-40.5 -9.7,-78.9 -11.2,-117.3 -12.5,-318.6 -34.2,-637.1 -33.4,-955.6 0.9,-349.9 12.1,-700.4 38.4,-1049.2 27.9,-370.2 10.8,-735.1 -52.7,-1100 -82.5,-474 -128.8,-950.9 -141.4,-1432.9 -12,-457.5 -65.1,-913.9 -82.9,-1371.4 -18.6,-477.1 -74.9,-948.8 -155.9,-1418.2 -81.7,-473.5 -56.3,-949 -31.2,-1424.6 0.9,-17.1 8.6,-33.8 16.4,-62.5 48.2,0 95.8,-3.1 142.9,0.5 331.4,25.3 662.5,53 993.9,77.7 291.9,21.8 584.1,20.5 874,-20.3 429.3,-60.4 859.2,-66 1290.5,-36.2 351.2,24.2 699.4,-11.9 1048.3,-46.1 601,-59 1202.2,-40.5 1802.9,11.5 183.4,15.9 367.2,27.2 550.6,43.9 287.7,26.3 573.6,6 860.7,-16.1 344.4,-26.4 689.9,-39.1 1035,-55.3 336.4,-15.8 672.8,-30.4 1009.3,-42.1 394.8,-13.6 789.8,-22.3 1184.6,-35.4 305,-10.1 609.9,-26.7 915,-34.6 264.7,-6.8 529.6,-5.3 794.4,-8 62.7,-0.6 126.6,3.7 187.9,-6.7 128,-21.6 213.2,-114.9 225.2,-234.3 11.7,-117.1 -55.6,-231.1 -173.3,-276.4 -53.4,-20.6 -113.2,-33.3 -170.3,-34.1 -776.9,-11.2 -1553.7,-23.6 -2330.6,-27.1 -354.5,-1.6 -709,18.2 -1063.6,23.1 -111.8,1.5 -223.8,-15.3 -335.8,-21.7 -385.4,-21.9 -770.8,-42.5 -1156.2,-64.6 -197.2,-11.3 -394.1,-31.1 -591.4,-35.4 -251,-5.5 -503.4,-13.7 -753.2,5.5 -354.9,27.2 -708.4,37.3 -1062.5,0.8 -224.4,-23.1 -448.2,-26.3 -672,2.6 -291.3,37.5 -581.8,25.6 -873.8,2.1 -272.8,-21.9 -546.9,-32.4 -820.5,-34.6 -238.4,-1.8 -474.1,-20.5 -711.4,-42.1 -370.5,-33.7 -743.7,-37.9 -1115.8,-51.9 -322.9,-12.2 -645.9,-20.7 -968.8,-31.6 -12.5,-0.4 -24.7,-8.2 -43.4,-14.8 -4,-19.3 -10.7,-40.3 -12.6,-61.6 -32.2,-357.7 -64.6,-715.3 -95,-1073.1 -13.2,-156.6 -23.9,-313.4 -32.2,-470.3 -22.3,-416.9 -47.2,-833.6 -62.1,-1250.8 -9.3,-264.3 -20.6,-530.6 1.1,-793.4 40.3,-487.4 27.1,-968.4 -78.8,-1446.8 -110.4,-498.8 -111.3,-1007.3 -127.8,-1514.5 -18.6,-574.5 -49.8,-1148.6 -27.1,-1723.8 2.9,-73.8 -13,-153.4 -40.7,-222.1 -50.4,-124.9 -175.7,-198.1 -300.2,-186.5 -138.3,12.8 -237.3,86.2 -278.1,219.1 -20.5,66.9 -29.7,142.4 -22.3,211.7 60.5,568.1 80.1,1137.3 72.2,1708.4 -6.8,493.7 16,988.5 -6.9,1481.3 -25.3,544.5 -36,1085.1 53.8,1625.3 47.3,284.9 33.6,574.1 4.9,860.3 -47.6,475.6 -30,950.7 -14.3,1426.7 13.5,408.3 16.8,817 24.2,1225.5 0.2,8.5 -4.8,17.1 -12.5,43 -35.5,3.5 -78,11.7 -120.3,11 -310.9,-4.7 -620.3,13.1 -924.3,79.7 -429.9,94.2 -841.2,4.4 -1244.9,-127.4 -377.6,-123.2 -754.4,-149 -1141.4,-60.8 -597.5,136.3 -1203.5,142.1 -1809.3,87.9 -404.4,-36.2 -807.1,-20.5 -1211.1,-13.9 -450.2,7.3 -895.7,35.9 -1337.5,133.2 -451.7,99.4 -910.6,83.6 -1368.3,38.8 -150.6,-14.7 -151.4,-18.3 -171.3,-168.8 -90.6,-686 -157.8,-1373.3 -173.3,-2066.3 -9.7,-435 -56.2,-869.1 -83,-1303.7 -31.5,-511 -62.8,-1022 -88.1,-1533.2 -32.9,-663.7 -48.4,-1328.5 -93.2,-1991.4 -32.1,-474.3 -99.1,-946.4 -153.2,-1419.1 -5.5,-47.8 -23.9,-96.3 -45.9,-139.6 -54,-106.1 -145.4,-157.6 -263.6,-152.7 -113.2,4.7 -199.9,61.3 -240.6,166.2 -25.3,65.1 -34.6,138.6 -39.5,209.2 -48.2,696.7 -6.6,1390.2 57.4,2084.7 47,509.2 54.6,1022 79.4,1533.2 34,699.7 63.5,1399.7 103.7,2099.1 16.2,282.1 65.1,562.4 81.7,844.5 20.6,349.5 23.7,700 33.3,1050 5.1,188.6 8,377.1 11.6,565.7 0.8,39.4 0.2,78.9 0.2,130.2 -49.9,2.9 -88.9,9.9 -126.8,6.4 -102.8,-9.4 -205.9,-19.3 -307.7,-36.2 -419.8,-69.9 -837.3,-64 -1260.5,-10.7 -853,107.3 -1710.1,125.1 -2567.7,50.9 -305.5,-26.4 -610.1,-18.7 -915.01,5.6 -53.69,4.3 -107.46,9.7 -161.24,10.3 -394.98,4.1 -789.97,10 -1184.95,9.3 -170.35,-0.3 -340.76,-13.3 -511.01,-23 -475.07,-27.1 -950.16,-53.8 -1425.02,-84.2 -156.71,-10 -312.7,-31.1 -469.05,-46.9 -301.3,-30.6 -601.05,-24.4 -897.78,41.4 -47.92,10.6 -96.1,24.7 -140.75,44.7 -146.36,65.8 -230.3,196.4 -222.02,338.2 8.65,148 111.29,275.9 270.53,314.9 108.38,26.6 221.01,43.4 332.47,48.4 215.12,9.7 431.56,21.3 646.03,8.4 579.53,-34.9 1158.44,7.5 1737.55,0 338.74,-4.3 671.51,39 1001.77,112.3 343.93,76.3 691.35,108.3 1043.42,63.1 70.97,-9.1 143.46,-5.9 215.26,-9 363.3,-15.6 727.3,-22.8 1089.8,-49.1 511,-37 1011.8,38.4 1515.7,101.5 440.8,55.2 884.2,97.4 1327.8,119.4 281.1,14 564.5,-19.4 846.9,-31.8 52.7,-2.3 105.3,-6 170.6,-9.8 6.8,53.4 13.1,96.1 17.7,139.1 24.2,227.5 38.1,456.7 74,682.5 70.9,446.5 87.6,894.3 41.5,1342.8 -39.3,383.2 -15.4,761.7 36.6,1141.2 89.5,654.5 137.9,1312 161.4,1972.6 17,475.2 71.7,949 112.9,1423.2 23.1,265.3 15.3,529.5 -13.1,793.5 -45.1,420 -78.3,840.5 -69.2,1263.4 0.8,34.9 -4.9,69.8 -7.6,106.3 -32.5,9.3 -57.5,19 -83.4,23.5 -221,38.6 -441.6,79.5 -663.4,113 -164,24.7 -329.7,57.1 -494.3,55.2 -413.9,-4.6 -825.2,22 -1237.3,54.5 -204.9,16.2 -415,20 -618.2,-6.4 -424.7,-55 -842.7,-29 -1259.3,53 -382.3,75.3 -764.2,92.7 -1152.06,39.9 -362.15,-49.3 -725.16,-22.7 -1088.36,16.2 -997.37,106.9 -1995.96,157.2 -2998.12,54.6 -213.07,-21.9 -430.41,-5.4 -645.64,-0.4 -61.49,1.4 -125.4,17 -183.1,39.3 -133.94,51.8 -211.25,182.1 -199.21,319.8 11.52,131.8 104.76,241.5 241.32,274.7 51.68,12.5 106.84,16.6 160.2,15.4 161.58,-3.7 323.04,-16.4 484.59,-17.2 287.18,-1.5 574.53,-1.7 861.55,6.4 493.6,13.9 986.88,40.9 1480.53,50.3 323.83,6.2 646.21,18 966.47,68.2 290.42,45.6 583.27,49.6 873.22,13.1 364.01,-45.8 724.81,-45.4 1087.21,7.9 355.4,52.3 709.3,27.8 1057.6,-50.9 441.4,-99.8 886.2,-130.6 1337.8,-118.8 538.5,14.1 1077.5,9.9 1616.3,15.8 161.6,1.8 323.2,10.5 484.7,16.9 108.5,4.2 114.9,7.8 133.1,109.6 159.9,898.7 290.8,1800 256.5,2717.2 -16.4,440.8 17.8,879.1 66.1,1317.4 61.6,557.8 95.9,1118.8 166.1,1675.4 62.8,497.7 75.9,993.3 31.4,1491.6 -24.9,278.8 -10.2,555.7 28.2,832.3 13,93.3 19.8,187.9 21.7,282 5.4,266.4 38.6,529.3 113.1,784.6 158.3,542.5 238.8,1095.1 247.5,1660.1 6.9,440.7 67.7,876.9 126.4,1313.4 37.6,279.9 60.7,562.6 74.5,844.8 31,633.4 96.6,1262.5 201.3,1887.7 14.1,84.2 19.9,170 38.7,252.9 12.6,55.7 32.1,114.3 64.6,160.1 122.3,172.2 376.1,147.8 461.9,-44.9 24.8,-55.5 35.7,-121.5 36.1,-182.8 2.9,-476 12.6,-952.4 -1.9,-1428.1 -11.4,-376.5 -55.6,-752 -82.5,-1128.2 -27.3,-380.6 -49.3,-761.7 -77.5,-1142.3 -23.8,-322.3 -40.9,-645.7 -82.8,-965.8 -72.5,-554.2 -84,-1110.4 -79.3,-1667.3 6.9,-831.8 -22.2,-1660.9 -120.8,-2487.7 -31.8,-266.9 -27.8,-537.9 -43.4,-806.8 -44.8,-766.5 -86.8,-1533.3 -139.5,-2299.2 -16.7,-241.3 -66.9,-480.2 -96.6,-720.8 -44.7,-362.3 -37.2,-726 -18.7,-1089.7 22.4,-440 26.2,-879.8 -8.6,-1319.4 -11.3,-143.1 -8.8,-138.6 135.4,-176.4 517.6,-135.3 1040,-135.4 1564.6,-57.3 889.5,132.4 1780.9,140.1 2673.1,38.3 591.4,-67.5 1182.6,-59.4 1775.6,-33.8 457.9,19.7 916.2,6.8 1371.6,-54.5 416.5,-56.1 834.3,-17.2 1251.5,-16.9 16.9,0 33.7,8.5 62.7,16.3 0,48.8 3.1,96.7 -0.5,144.1 -48,625.1 -18.2,1248 58.6,1868.7 28,227 80.9,450.8 115.4,677.1 54.1,355.1 108.2,710.4 151.3,1066.9 45.5,375.9 130.5,743.1 225.6,1108 132.7,508.9 177.8,1024.2 152.5,1548.9 -11.2,232.4 3.9,466.1 9.7,699.1 5.1,206.4 15.3,412.6 20.6,619 8.5,331 82.1,648.9 183.2,962.4 95.1,295.1 182.6,592.6 215,902.7 18.6,178.6 34.6,357.6 51.1,536.4 41.8,453.3 134.9,897.2 255.5,1334.8 120.7,438.3 206.4,882.6 271.4,1332.2 54.7,378 135.3,751.3 253.9,1115.2 18,55.2 38.2,111 66.9,161.1 54.5,95.1 157.6,139 250.7,114.8 95.7,-24.9 163,-108.7 168.8,-218.9 2.6,-48.9 -3.7,-98.6 -9.5,-147.5 -88.5,-753.6 -179.7,-1507 -265.1,-2261 -19.6,-173.7 -26.4,-349.6 -27.1,-524.5 -2,-459.5 -53.1,-912.5 -127.8,-1366 -129.1,-784.1 -236.6,-1571.8 -352.6,-2358.1 -64.3,-435.4 -132.8,-869.3 -240.5,-1297.4 -57.7,-229.5 -88.3,-467.3 -112.4,-703.4 -42.4,-415.3 -74.9,-831.8 -102.1,-1248.5 -11.6,-178.6 -3.4,-359 3,-538.4 16.3,-453.2 36.7,-906.2 55.4,-1359.3 3.2,-76.3 3.1,-152.9 10.1,-228.8 21,-228.7 27.3,-456.3 -14,-684.2 -16,-87.7 -25.1,-180.1 -16.4,-268.2 20.2,-203.6 -32.5,-391.5 -98,-579 -35.6,-101.8 -69,-204.3 -101.2,-307.1 -11.7,-37.3 -17.1,-76.6 -31.1,-141.4"
         style="fill:#aa0000;fill-opacity:1;fill-rule:nonzero;stroke:none"
         id="path16" />
      <path
         d="m 9584.28,7243.5 c 311.6,4.2 615.02,58.9 917.82,129.6 573.9,134 987.5,461.5 1214.4,1005.1 182.3,436.5 252.5,898.7 229.6,1370.3 -18.4,377.2 -88.2,748.8 -183.1,1114.2 -96.4,371.8 -321.1,638.1 -684.6,774.1 -138.1,51.7 -280.8,95 -424.9,125.4 -162,34.2 -327.9,50.8 -492.4,72.9 -255.79,34.3 -500.26,-7.3 -735.41,-112 -401.18,-178.6 -766.15,-414 -1086.87,-713 -460.99,-429.8 -691.93,-958.4 -678.49,-1595.3 16.74,-793 337.27,-1428.3 958.66,-1916 208.37,-163.5 445.97,-246.3 709.65,-254.9 85.13,-2.7 170.42,-0.4 255.64,-0.4 z m 3349.42,2553.6 c 35.1,-781.9 -218.1,-1522.9 -695.4,-2178.4 -357.8,-491.5 -830.8,-854.7 -1427.9,-1030.7 -219.6,-64.8 -439.6,-128.6 -657,-200 -354.5,-116.2 -707.09,-104.1 -1060.24,1.5 -332.14,99.2 -655.14,222.5 -958.55,390.8 -241.55,133.9 -447.44,315.4 -632.9,518.9 -261.29,286.6 -494.8,593.9 -654,950.2 -235.14,526.3 -272.68,1074 -161.31,1635.2 79.14,398.9 196.18,786.2 410,1134.5 330.25,537.9 763.1,971.5 1371.36,1178.7 303.77,103.6 628.44,146.2 944.3,213.4 87.64,18.7 177.49,27.2 266.49,39 107.49,14.4 207.53,30 281.85,130.8 60.9,82.6 165.4,83.6 261.4,67.2 265.4,-45.5 530.8,-91.2 795.1,-142.5 136.4,-26.5 271.8,-60.7 405.4,-99.3 695.5,-200.7 1134.6,-663.6 1353.3,-1343.2 128,-397.4 153.8,-810.1 158.1,-1266.1"
         style="fill:#000000;fill-opacity:1;fill-rule:nonzero;stroke:none"
         id="path18" />
      <path
         d="m 10127.5,32579.4 c 34.3,29.2 65.1,53.9 94.3,80.4 356,322.6 713.4,643.8 1067.1,968.8 297.5,273.5 588.4,554.1 886.9,826.4 132.2,120.7 272.1,234 416.5,339.9 54.8,40.1 130.7,65.3 199,70.4 191.7,14.5 319.8,-166.2 247.5,-344.6 -23.1,-56.9 -61.6,-110.2 -102.7,-156.5 -524.8,-590.8 -1052.7,-1178.9 -1576.8,-1770.4 -211.3,-238.5 -416.4,-482.6 -621.8,-726.3 -69.7,-82.8 -69,-89.2 -1.6,-172.7 152.1,-188.8 306.4,-376 461.7,-562.1 257.6,-308.8 468.7,-647.1 644,-1008.1 365.7,-753.2 852.4,-1424 1394.6,-2057.5 34.8,-40.7 71.3,-81.8 97.2,-128.2 51.3,-91.7 38.3,-194.3 -25.5,-263 -65.7,-70.8 -182.4,-96.8 -272.5,-44.1 -60.1,35.1 -112.8,88.1 -158.3,142 -416.8,494.3 -824.3,996.7 -1249.4,1483.7 -206,236 -436.2,452.7 -669.1,663 -238.6,215.6 -452,448.6 -619.6,723.5 -67.7,111.1 -139.8,219.7 -211.5,328.5 -26.6,40.4 -57.6,78 -95.8,129.2 -45.6,-36.3 -86.04,-62.6 -119.46,-95.9 -206.55,-206.2 -410.18,-415.3 -617.28,-620.8 -469.33,-465.9 -972.87,-891.1 -1505.08,-1284.2 -292.15,-215.8 -567.15,-454.9 -850.42,-682.7 -41.8,-33.6 -83.48,-69.6 -130.7,-93.8 -105.17,-54 -209.11,-46.2 -302.46,29.8 -86.59,70.5 -123.4,196.3 -80.89,305.8 22.11,56.9 56.71,114 99.62,157.2 820.35,825.3 1578.45,1708.2 2374.44,2556 153.5,163.5 319.7,315.2 483.06,469.2 50.6,47.7 58.28,87.3 26.38,151.8 -99.45,201.1 -200.87,402.1 -283.48,610.3 -243.9,614.7 -589.29,1169.2 -978.66,1699.9 -270.96,369.2 -534.89,743.7 -800.91,1116.6 -33.73,47.3 -67.34,96.4 -90.1,149.4 -47.85,111.3 -21.82,231.2 62.79,309.6 91.67,85 201.74,108.4 311,51.3 81.9,-42.8 158.32,-103.5 223.46,-169.7 307.08,-312.1 570.54,-658.5 780.11,-1043.3 152.45,-280 297.07,-564.2 442.25,-848.1 169.29,-330.9 387.77,-624.8 651.23,-886.5 117.8,-117.1 230.36,-239.4 345.9,-358.8 14.9,-15.4 33.1,-27.5 55,-45.4"
         style="fill:#000000;fill-opacity:1;fill-rule:nonzero;stroke:none"
         id="path20" />
      <path
         d="m 32402,19587.1 c 11.2,-14.3 22.2,-34 38.3,-47.8 367.3,-313.8 687.1,-672 968.4,-1062.8 310.8,-431.8 682.8,-809.3 1035.9,-1203.9 44.9,-50.2 91.7,-98.6 135.9,-149.4 125.6,-144.4 142.7,-287.4 49.3,-401 -96.6,-117.4 -251.8,-134.6 -415.1,-36.1 -192.1,115.9 -380.1,238.8 -569.8,358.8 -53.1,33.6 -104.5,70.2 -159.2,100.9 -375.9,211.3 -691.6,494.4 -988.7,804 -307.6,320.5 -627.9,628.9 -943,942.3 -15.6,15.5 -34.4,27.6 -62.1,49.5 -35.4,-25.1 -70.6,-50.3 -106,-75.1 -176.4,-123.3 -352.9,-246.4 -529.3,-369.7 -250,-174.8 -499,-351.2 -750.2,-524.3 -266,-183.2 -533.6,-364.4 -801.9,-544.2 -44.2,-29.6 -93.9,-55.1 -144.8,-69.6 -117.3,-33.5 -224.6,-10.3 -304.1,87.7 -79,97.4 -82.3,206.9 -26.3,315.7 24.3,47.1 58.9,90.4 95.1,129.5 326.5,353.1 671.5,686.3 1041.7,994.1 255.3,212.3 498.6,438.9 746.6,659.8 19.3,17.2 33.5,40.1 60,72.5 -43.7,42 -83.2,82.5 -125.4,119.8 -265.4,235.1 -538.3,462.3 -794.9,706.7 -155.1,147.8 -288,319.5 -425.4,485.1 -111.6,134.7 -216.5,275.2 -321.4,415.3 -50.9,68 -104.5,136.7 -140.5,212.8 -101.2,213.9 18.6,431.2 254,454.7 86.8,8.7 180.7,-3.7 265.1,-28.1 348.2,-101 646.4,-287 891.8,-554.9 66.8,-72.8 134,-145.6 194.7,-223.3 266.3,-341.4 574.1,-642.1 899.5,-926 109,-95.1 113,-100.8 222.2,-2.7 190.2,170.9 368.2,355.8 562.3,522 286.2,245.2 581.5,479.9 873.9,717.8 181.1,147.3 361.5,295.7 547.3,436.7 85.2,64.6 178.7,121.6 275.8,166.3 155.9,71.8 307.1,40.8 408.9,-68.4 105.3,-113 122,-273 34.3,-424.6 -42.3,-73.1 -95.1,-142.1 -152.6,-204.2 -85.2,-92.1 -174.6,-181.3 -269.6,-263.3 -289.9,-250.1 -548.8,-529.7 -797.2,-820 -207.8,-242.8 -435.9,-464.8 -689.3,-660.3 -24.8,-19.1 -48.2,-40.1 -71,-61.5 -5.8,-5.5 -7.1,-15.9 -13.2,-30.8"
         style="fill:#000000;fill-opacity:1;fill-rule:nonzero;stroke:none"
         id="path22" />
      <path
         d="m 22456.2,19803.5 c -9.5,71.9 -14.6,217.4 -49.9,355.1 -62.5,244.5 -145,486.7 -344.1,658.3 -211.8,182.6 -403.3,383.1 -580.3,598.2 -42.1,51.1 -92.2,79.8 -156.1,96.7 -539.5,142.4 -1069.2,98.1 -1587.1,-93.3 -145.6,-53.9 -289.8,-127.2 -414.7,-218.9 -581.3,-426.9 -1157.6,-1296.7 -850.3,-2395.6 131.9,-471.9 407.6,-805.5 883.3,-949.7 278.8,-84.6 560.3,-164.1 845.3,-223.5 348.7,-72.8 699.2,-69 1026.8,95.9 325.3,163.7 601.8,392.4 817,686.9 286,391.3 386.6,843.2 410.1,1389.9 z m -4700.6,-354 c 33.9,316.5 52.9,635.5 104.8,949 111.6,672.7 500.5,1153.5 1091.7,1469.7 494.2,264.4 1022.2,441.3 1577.6,525.1 462.8,69.8 905.2,-6.5 1316.9,-230.1 112.8,-61.3 210,-151.3 314.1,-228.6 39.3,-29.1 73.7,-68.8 117.3,-87.8 306.4,-133.7 521.9,-365.1 680.4,-648.7 146.6,-262.4 281.8,-531.9 407.5,-804.8 106.3,-230.7 156.7,-478.6 141.1,-734.3 -11.8,-192.5 -26.8,-385.5 -54.8,-576.1 -42.5,-288.7 -156.2,-551.1 -321.5,-792.1 -447.9,-652.8 -1015.8,-1171 -1717,-1541.6 -100.3,-53 -203.1,-93.4 -317.6,-103.3 -76,-6.5 -152.2,-16.7 -226.5,-33.2 -223.7,-49.8 -445.5,-43.9 -667,10.8 -261.6,64.5 -524.8,122.7 -784.4,194.2 -255.5,70.4 -485.3,195.4 -664.6,393 -195.9,215.9 -391.7,433.6 -566.3,666.5 -280.9,374.6 -405.1,807 -410.6,1273.8 -1.2,98.8 -0.2,197.6 -0.2,296.4 -6.9,0.7 -13.9,1.4 -20.9,2.1"
         style="fill:#000000;fill-opacity:1;fill-rule:nonzero;stroke:none"
         id="path24" />
    </g>
  </g>
</svg>
